# 3ds Max Wavefront OBJ Exporter v0.97b - (c)2007 guruware
# File Created: 22.10.2015 15:57:30

#
# object BlobMesh005
#

v  33.4400 3.0637 -44.6886
v  33.8540 3.6595 -46.5160
v  31.9464 3.3418 -47.1487
v  31.0782 2.9181 -46.8061
v  33.6835 3.6237 -48.8859
v  31.3136 3.2561 -49.0563
v  29.4931 2.3474 -49.4886
v  37.7391 2.7676 -48.9721
v  35.9633 3.2145 -49.1129
v  35.6661 3.3502 -47.1753
v  36.2534 2.9463 -46.2802
v  31.9730 2.6593 -50.8684
v  31.6328 1.9126 -51.8969
v  33.9106 2.7511 -51.1656
v  34.6160 1.5136 -52.9484
v  35.6927 2.7083 -50.8950
v  36.6941 2.1495 -51.4848
v  34.5621 -2.6560 -42.9390
v  33.9472 -0.3027 -42.7864
v  32.2097 -0.7711 -43.0548
v  32.2431 -2.6694 -43.2915
v  34.1903 1.9566 -43.4423
v  31.2384 0.2206 -43.7531
v  29.9100 -2.6949 -44.5892
v  38.4790 -2.6368 -44.1922
v  36.7477 -0.3778 -43.6617
v  35.9294 -0.8445 -43.1037
v  36.8927 -2.6841 -43.2498
v  28.8300 -2.8569 -45.9635
v  28.2840 -0.6210 -46.3337
v  27.8524 -1.3309 -47.4121
v  28.0892 -3.0982 -47.4454
v  28.2464 1.1445 -48.3658
v  27.5841 -1.3405 -49.1495
v  27.7367 -3.6712 -49.7644
v  30.0410 2.6922 -47.2540
v  30.8642 2.4301 -46.2454
v  28.7734 1.8021 -49.2276
v  28.5730 -0.9641 -45.5002
v  29.0981 0.1546 -45.6044
v  29.0597 -2.8065 -45.1134
v  31.0340 1.4569 -44.9245
v  33.5328 2.6778 -43.9752
v  35.7714 2.8536 -45.2313
v  36.9102 2.4040 -46.1073
v  37.8843 -0.7916 -44.0841
v  37.3461 0.2066 -44.6040
v  39.3940 -2.5028 -44.7359
v  40.1400 -2.3169 -45.8171
v  39.7583 0.5905 -47.3680
v  38.3119 1.5786 -46.6877
v  39.3299 1.6671 -50.2496
v  38.5067 2.4306 -49.3167
v  41.8569 -2.6435 -50.7920
v  40.9843 -0.3425 -50.3562
v  40.8926 -0.4214 -48.5347
v  41.4893 -2.2082 -48.4434
v  27.9013 -2.3038 -51.1318
v  28.0475 -4.2860 -52.0950
v  28.7158 -1.4227 -51.5829
v  29.8765 -4.5338 -54.6775
v  32.2683 1.5419 -52.8298
v  31.1068 1.2077 -52.2855
v  34.6069 0.8147 -53.7095
v  34.0204 -0.0027 -54.5387
v  32.1547 -1.9798 -55.4096
v  31.2214 -2.4618 -55.2284
v  31.1208 -1.3355 -54.2760
v  31.6428 -4.3501 -56.0365
v  30.7176 -4.4410 -55.6784
v  29.8637 0.0001 -51.9261
v  37.6153 2.1016 -51.1904
v  37.1240 1.4608 -52.1763
v  40.3827 -1.0500 -52.9734
v  40.3348 -1.7353 -54.0101
v  39.3772 -0.8084 -53.2672
v  40.9940 -3.5268 -54.5630
v  40.9499 -3.6636 -55.4029
v  40.1799 -3.8919 -55.8319
v  37.3078 -1.3751 -55.1256
v  37.1752 0.1561 -53.6558
v  40.9415 -1.1812 -52.2544
v  41.4477 -3.0794 -53.0930
v  33.3323 -2.5671 -56.0949
v  33.2410 -4.3792 -56.6917
v  35.1539 -2.2699 -56.1866
v  35.5897 -4.5497 -57.0592
v  37.0521 -2.5405 -56.1438
v  37.8907 -4.3226 -56.6500
v  33.1826 -4.4908 -43.7372
v  35.1350 -4.9524 -43.6949
v  32.7716 -5.6190 -44.8479
v  35.9633 -7.2265 -45.1920
v  36.9023 -4.5642 -43.7456
v  38.0047 -5.0274 -44.4098
v  28.5349 -5.0506 -48.3850
v  29.2281 -5.2707 -47.5907
v  28.4926 -5.9902 -50.3374
v  29.9704 -8.0386 -50.1388
v  29.4724 -4.6839 -46.5210
v  30.3846 -5.6850 -47.1268
v  30.7431 -8.8708 -50.9797
v  31.7778 -8.7608 -48.9027
v  32.4170 -8.2429 -47.8020
v  31.4777 -9.3688 -51.1844
v  32.7495 -9.0052 -48.4171
v  35.1358 -8.6524 -46.7328
v  35.2848 -7.9952 -45.9618
v  32.7065 -7.0226 -46.3525
v  38.9050 -4.5113 -44.7502
v  38.8686 -5.6330 -45.5714
v  37.4201 -8.5995 -46.9270
v  38.4668 -8.2689 -47.5878
v  37.8644 -8.9770 -47.9150
v  39.7834 -8.9486 -50.4043
v  40.4933 -8.2423 -50.7304
v  39.7400 -6.9010 -48.0397
v  41.0796 -7.5160 -51.6748
v  40.8531 -5.2491 -48.5688
v  41.5751 -4.1411 -49.2944
v  41.8928 -4.9922 -51.2274
v  28.5433 -6.0235 -52.1047
v  29.6408 -7.2623 -53.1161
v  32.0446 -6.1816 -56.1278
v  32.3191 -7.1752 -55.5625
v  33.1338 -6.6295 -56.3537
v  35.4456 -9.1857 -56.2627
v  36.0206 -9.8582 -55.6792
v  33.7219 -9.9112 -54.5665
v  32.5705 -9.4653 -53.8384
v  36.0482 -10.2026 -54.9329
v  33.2058 -10.0107 -53.5682
v  31.1200 -8.4795 -53.5987
v  41.0009 -5.4550 -54.8333
v  40.3445 -6.6480 -54.4654
v  41.1307 -5.6997 -53.9524
v  39.3110 -9.3515 -52.6439
v  38.6045 -9.2122 -53.6400
v  38.3290 -9.7738 -53.0578
v  38.5272 -8.3235 -54.9122
v  38.5086 -7.2147 -56.0506
v  41.5834 -4.9009 -53.0141
v  34.0921 -6.2868 -56.7774
v  36.0250 -6.9196 -57.0951
v  37.8118 -6.2602 -56.7858
v  33.7424 -9.6983 -48.9448
v  35.5638 -9.7406 -48.4832
v  33.2809 -10.1441 -50.7661
v  35.5772 -10.4965 -50.7795
v  37.4622 -9.6899 -48.8714
v  37.9305 -10.1857 -50.7514
v  33.6690 -10.3808 -52.6645
v  35.5491 -10.6491 -53.1328
v  37.3888 -10.3319 -52.5911
# 154 vertices

vn -0.1555 0.8916 0.4254
vn 0.0343 0.9820 0.1858
vn -0.2876 0.9486 0.1321
vn -0.3405 0.9202 0.1933
vn -0.0051 0.9854 -0.1700
vn -0.3078 0.9407 -0.1428
vn -0.5452 0.7803 -0.3064
vn 0.3848 0.9229 -0.0100
vn 0.2089 0.9624 -0.1738
vn 0.2544 0.9599 0.1181
vn 0.5473 0.7699 0.3282
vn -0.2064 0.8640 -0.4593
vn -0.3670 0.7330 -0.5728
vn -0.0221 0.8767 -0.4805
vn 0.0728 0.7818 -0.6193
vn 0.1708 0.8948 -0.4125
vn 0.2236 0.8210 -0.5254
vn 0.0009 -0.1775 0.9841
vn -0.0148 0.1337 0.9909
vn -0.3367 0.0676 0.9392
vn -0.3290 -0.2505 0.9105
vn 0.1030 0.5044 0.8573
vn -0.6094 0.3204 0.7252
vn -0.5175 -0.2465 0.8194
vn 0.4924 -0.0244 0.8700
vn 0.4426 0.3024 0.8442
vn 0.3076 0.1596 0.9380
vn 0.3502 -0.0597 0.9348
vn -0.8904 -0.2870 0.3532
vn -0.8879 0.2279 0.3995
vn -0.9606 0.0172 0.2775
vn -0.9027 -0.2509 0.3495
vn -0.8774 0.4769 0.0518
vn -0.9891 0.1351 -0.0593
vn -0.9818 -0.1855 0.0418
vn -0.5344 0.7880 0.3056
vn -0.5776 0.5936 0.5603
vn -0.7926 0.5418 -0.2798
vn -0.7619 0.1242 0.6357
vn -0.6238 0.4368 0.6482
vn -0.6998 -0.3154 0.6410
vn -0.5759 0.5324 0.6204
vn -0.1914 0.6716 0.7157
vn 0.4548 0.7368 0.5004
vn 0.5759 0.6754 0.4607
vn 0.5758 0.3704 0.7288
vn 0.5956 0.5567 0.5792
vn 0.7137 0.0735 0.6966
vn 0.8355 0.0965 0.5409
vn 0.7079 0.5758 0.4091
vn 0.6230 0.6387 0.4515
vn 0.6264 0.7489 -0.2162
vn 0.5635 0.8261 0.0037
vn 0.9830 0.1809 -0.0324
vn 0.8499 0.5193 -0.0891
vn 0.8547 0.4620 0.2369
vn 0.9432 0.1164 0.3112
vn -0.8968 0.2172 -0.3855
vn -0.9265 -0.0630 -0.3711
vn -0.7181 0.4142 -0.5593
vn -0.7694 -0.0209 -0.6384
vn -0.2671 0.7076 -0.6541
vn -0.5309 0.5009 -0.6835
vn 0.0953 0.7039 -0.7039
vn -0.1003 0.6372 -0.7641
vn -0.3709 0.5353 -0.7589
vn -0.5498 0.4156 -0.7246
vn -0.5362 0.5428 -0.6464
vn -0.3583 0.1316 -0.9243
vn -0.6265 0.0218 -0.7792
vn -0.6540 0.4505 -0.6077
vn 0.3313 0.8076 -0.4879
vn 0.3171 0.7232 -0.6135
vn 0.6473 0.6116 -0.4549
vn 0.5017 0.6222 -0.6009
vn 0.3189 0.7060 -0.6324
vn 0.9552 0.2045 -0.2141
vn 0.7543 0.2409 -0.6107
vn 0.4362 0.1709 -0.8835
vn 0.2737 0.6474 -0.7113
vn 0.3005 0.6952 -0.6530
vn 0.8013 0.4984 -0.3308
vn 0.9297 0.2258 -0.2910
vn -0.2167 0.4101 -0.8859
vn -0.2749 0.1154 -0.9545
vn -0.0036 0.4862 -0.8738
vn -0.0051 0.1677 -0.9858
vn 0.1883 0.4957 -0.8478
vn 0.2331 0.2027 -0.9511
vn -0.2747 -0.4733 0.8370
vn -0.0139 -0.4531 0.8913
vn -0.4045 -0.6206 0.6717
vn 0.1038 -0.6347 0.7658
vn 0.2727 -0.3496 0.8963
vn 0.4785 -0.4863 0.7311
vn -0.8208 -0.4537 0.3472
vn -0.6893 -0.5484 0.4734
vn -0.8798 -0.4640 0.1029
vn -0.6970 -0.6795 0.2290
vn -0.5556 -0.5845 0.5913
vn -0.4571 -0.6512 0.6058
vn -0.6608 -0.7504 0.0151
vn -0.5012 -0.7292 0.4659
vn -0.4616 -0.6598 0.5929
vn -0.5120 -0.8578 0.0440
vn -0.4374 -0.6782 0.5906
vn -0.1285 -0.7863 0.6043
vn -0.1557 -0.6805 0.7160
vn -0.4386 -0.6394 0.6315
vn 0.6604 -0.3288 0.6751
vn 0.6342 -0.5140 0.5776
vn 0.3528 -0.7012 0.6195
vn 0.6027 -0.5432 0.5845
vn 0.4455 -0.7408 0.5027
vn 0.6484 -0.7229 0.2386
vn 0.8211 -0.5251 0.2238
vn 0.7393 -0.4442 0.5061
vn 0.8772 -0.4782 -0.0430
vn 0.8286 -0.3422 0.4430
vn 0.9323 -0.1820 0.3125
vn 0.9840 -0.1736 0.0415
vn -0.8788 -0.4003 -0.2597
vn -0.7273 -0.5332 -0.4321
vn -0.4887 -0.2877 -0.8237
vn -0.5670 -0.4988 -0.6555
vn -0.3186 -0.2254 -0.9207
vn -0.0733 -0.5427 -0.8368
vn 0.2165 -0.7319 -0.6461
vn -0.4339 -0.7417 -0.5115
vn -0.5181 -0.7548 -0.4023
vn 0.1727 -0.9148 -0.3651
vn -0.5527 -0.7620 -0.3373
vn -0.6250 -0.6338 -0.4557
vn 0.7630 -0.2986 -0.5733
vn 0.6408 -0.5121 -0.5719
vn 0.9493 -0.2022 -0.2409
vn 0.6205 -0.7407 -0.2575
vn 0.6024 -0.6372 -0.4807
vn 0.4831 -0.8403 -0.2461
vn 0.6032 -0.5844 -0.5429
vn 0.6053 -0.4350 -0.6666
vn 0.9626 -0.0984 -0.2524
vn -0.2598 -0.1522 -0.9536
vn 0.0450 -0.2077 -0.9771
vn 0.3378 -0.1633 -0.9269
vn -0.2569 -0.8844 0.3897
vn 0.0029 -0.8993 0.4372
vn -0.3062 -0.9332 0.1880
vn -0.0025 -0.9838 0.1792
vn 0.2747 -0.8730 0.4030
vn 0.3705 -0.9205 0.1243
vn -0.2814 -0.9559 -0.0841
vn -0.0090 -0.9932 -0.1160
vn 0.3272 -0.9408 -0.0883
# 154 vertex normals

vt 0.4837 0.8039 1.0167
vt 0.5000 0.8937 1.0045
vt 0.3750 0.8779 0.9958
vt 0.3601 0.8253 0.9898
vt 0.5000 1.0000 1.0000
vt 0.2500 0.8937 1.0045
vt 0.2337 0.8039 1.0167
vt 0.7337 0.8039 1.0167
vt 0.7500 0.8937 1.0045
vt 0.6250 0.8779 0.9958
vt 0.6101 0.8253 0.9898
vt 0.1250 0.8779 0.9958
vt 0.1101 0.8253 0.9898
vt 0.0000 0.8937 1.0045
vt 0.9837 0.8039 1.0167
vt 1.1101 0.8253 0.9898
vt 1.1250 0.8779 0.9958
vt 1.0000 0.8937 1.0045
vt 0.8750 0.8779 0.9958
vt 0.8601 0.8253 0.9898
vt 0.5000 0.5000 1.0000
vt 0.5000 0.6063 1.0045
vt 0.4558 0.5852 0.9958
vt 0.4468 0.5000 1.0045
vt 0.5147 0.7195 1.0223
vt 0.4315 0.6408 0.9663
vt 0.3843 0.5000 1.0192
vt 0.5909 0.5000 1.0107
vt 0.5701 0.6080 0.9898
vt 0.5442 0.5852 0.9958
vt 0.5532 0.5000 1.0045
vt 0.3409 0.5000 1.0107
vt 0.3201 0.6080 0.9898
vt 0.2942 0.5852 0.9958
vt 0.3032 0.5000 1.0045
vt 0.2647 0.7195 1.0223
vt 0.2500 0.6063 1.0045
vt 0.2500 0.5000 1.0000
vt 0.3226 0.7977 1.0079
vt 0.3704 0.7850 0.9685
vt 0.2420 0.7644 1.0236
vt 0.3431 0.5842 1.0079
vt 0.3468 0.6426 0.9550
vt 0.3603 0.5000 1.0511
vt 0.4069 0.7192 0.9450
vt 0.4920 0.7644 1.0236
vt 0.5726 0.7977 1.0079
vt 0.6204 0.7850 0.9685
vt 0.5931 0.5842 1.0079
vt 0.5968 0.6426 0.9550
vt 0.6103 0.5000 1.0511
vt 0.6343 0.5000 1.0192
vt 0.6815 0.6408 0.9663
vt 0.6569 0.7192 0.9450
vt 0.7647 0.7195 1.0223
vt 0.7420 0.7644 1.0236
vt 0.7500 0.5000 1.0000
vt 0.7500 0.6063 1.0045
vt 0.7058 0.5852 0.9958
vt 0.6968 0.5000 1.0045
vt 0.2058 0.5852 0.9958
vt 0.1968 0.5000 1.0045
vt 0.1815 0.6408 0.9663
vt 0.1343 0.5000 1.0192
vt 0.0726 0.7977 1.0079
vt 0.1204 0.7850 0.9685
vt 0.9920 0.7644 1.0236
vt 1.0726 0.7977 1.0079
vt 0.0147 0.7195 1.0223
vt -0.0080 0.7644 1.0236
vt 0.0701 0.6080 0.9898
vt 0.0931 0.5842 1.0079
vt 0.0968 0.6426 0.9550
vt 0.0909 0.5000 1.0107
vt 0.1103 0.5000 1.0511
vt 0.1569 0.7192 0.9450
vt 0.8226 0.7977 1.0079
vt 0.8704 0.7850 0.9685
vt 0.8201 0.6080 0.9898
vt 0.8431 0.5842 1.0079
vt 0.8468 0.6426 0.9550
vt 0.8409 0.5000 1.0107
vt 0.8603 0.5000 1.0511
vt 0.8843 0.5000 1.0192
vt 0.9315 0.6408 0.9663
vt 0.9069 0.7192 0.9450
vt -0.0931 0.7192 0.9450
vt -0.0685 0.6408 0.9663
vt 0.7942 0.5852 0.9958
vt 0.8032 0.5000 1.0045
vt 0.0442 0.5852 0.9958
vt 0.0532 0.5000 1.0045
vt -0.0000 0.6063 1.0045
vt 1.0000 0.5000 1.0000
vt 1.0532 0.5000 1.0045
vt 1.0442 0.5852 0.9958
vt 1.0000 0.6063 1.0045
vt -0.0442 0.5852 0.9958
vt 0.9468 0.5000 1.0045
vt 0.9558 0.5852 0.9958
vt 0.4558 0.4148 0.9958
vt 0.5000 0.3937 1.0045
vt 0.4315 0.3592 0.9663
vt 0.5147 0.2805 1.0223
vt 0.5442 0.4148 0.9958
vt 0.5701 0.3920 0.9898
vt 0.2942 0.4148 0.9958
vt 0.3201 0.3920 0.9898
vt 0.2500 0.3937 1.0045
vt 0.2647 0.2805 1.0223
vt 0.3431 0.4158 1.0079
vt 0.3468 0.3574 0.9550
vt 0.2420 0.2356 1.0236
vt 0.3226 0.2023 1.0079
vt 0.3704 0.2150 0.9685
vt 0.2337 0.1961 1.0167
vt 0.3601 0.1747 0.9898
vt 0.4837 0.1961 1.0167
vt 0.4920 0.2356 1.0236
vt 0.4069 0.2808 0.9450
vt 0.5931 0.4158 1.0079
vt 0.5968 0.3574 0.9550
vt 0.5726 0.2023 1.0079
vt 0.6204 0.2150 0.9685
vt 0.6101 0.1747 0.9898
vt 0.7337 0.1961 1.0167
vt 0.7420 0.2356 1.0236
vt 0.6569 0.2808 0.9450
vt 0.7647 0.2805 1.0223
vt 0.6815 0.3592 0.9663
vt 0.7058 0.4148 0.9958
vt 0.7500 0.3937 1.0045
vt 0.2058 0.4148 0.9958
vt 0.1815 0.3592 0.9663
vt 0.0931 0.4158 1.0079
vt 0.0968 0.3574 0.9550
vt 0.0701 0.3920 0.9898
vt 0.0147 0.2805 1.0223
vt -0.0080 0.2356 1.0236
vt 0.0726 0.2023 1.0079
vt 0.1204 0.2150 0.9685
vt 0.9837 0.1961 1.0167
vt 1.1101 0.1747 0.9898
vt 1.0726 0.2023 1.0079
vt 0.9920 0.2356 1.0236
vt 0.1101 0.1747 0.9898
vt 0.1569 0.2808 0.9450
vt 0.8431 0.4158 1.0079
vt 0.8468 0.3574 0.9550
vt 0.8201 0.3920 0.9898
vt 0.8226 0.2023 1.0079
vt 0.8704 0.2150 0.9685
vt 0.8601 0.1747 0.9898
vt 0.9069 0.2808 0.9450
vt -0.0685 0.3592 0.9663
vt -0.0931 0.2808 0.9450
vt 0.9315 0.3592 0.9663
vt 0.7942 0.4148 0.9958
vt 0.0442 0.4148 0.9958
vt 1.0000 0.3937 1.0045
vt 1.0442 0.4148 0.9958
vt -0.0000 0.3937 1.0045
vt 0.9558 0.4148 0.9958
vt -0.0442 0.4148 0.9958
vt 0.3750 0.1221 0.9958
vt 0.5000 0.1063 1.0045
vt 0.2500 0.1063 1.0045
vt 0.5000 0.0000 1.0000
vt 0.6250 0.1221 0.9958
vt 0.7500 0.1063 1.0045
vt 0.1250 0.1221 0.9958
vt 1.0000 0.1063 1.0045
vt 1.1250 0.1221 0.9958
vt 0.0000 0.1063 1.0045
vt 0.8750 0.1221 0.9958
# 175 texture coords

g BlobMesh005
s 1
f 1/1/1 2/2/2 3/3/3 4/4/4 
f 5/5/5 6/6/6 3/3/3 2/2/2 
f 7/7/7 4/4/4 3/3/3 6/6/6 
f 8/8/8 9/9/9 10/10/10 11/11/11 
f 5/5/5 2/2/2 10/10/10 9/9/9 
f 1/1/1 11/11/11 10/10/10 2/2/2 
f 7/7/7 6/6/6 12/12/12 13/13/13 
f 5/5/5 14/14/14 12/12/12 6/6/6 
f 15/15/15 13/16/13 12/17/12 14/18/14 
f 5/5/5 9/9/9 16/19/16 14/18/14 
f 8/8/8 17/20/17 16/19/16 9/9/9 
f 15/15/15 14/18/14 16/19/16 17/20/17 
f 18/21/18 19/22/19 20/23/20 21/24/21 
f 22/25/22 23/26/23 20/23/20 19/22/19 
f 24/27/24 21/24/21 20/23/20 23/26/23 
f 25/28/25 26/29/26 27/30/27 28/31/28 
f 22/25/22 19/22/19 27/30/27 26/29/26 
f 18/21/18 28/31/28 27/30/27 19/22/19 
f 29/32/29 30/33/30 31/34/31 32/35/32 
f 33/36/33 34/37/34 31/34/31 30/33/30 
f 35/38/35 32/35/32 31/34/31 34/37/34 
f 1/1/1 4/4/4 36/39/36 37/40/37 
f 7/7/7 38/41/38 36/39/36 4/4/4 
f 33/36/33 37/40/37 36/39/36 38/41/38 
f 33/36/33 30/33/30 39/42/39 40/43/40 
f 29/32/29 41/44/41 39/42/39 30/33/30 
f 24/27/24 40/43/40 39/42/39 41/44/41 
f 24/27/24 23/26/23 42/45/42 40/43/40 
f 22/25/22 43/46/43 42/45/42 23/26/23 
f 1/1/1 37/40/37 42/45/42 43/46/43 
f 33/36/33 40/43/40 42/45/42 37/40/37 
f 8/8/8 11/11/11 44/47/44 45/48/45 
f 1/1/1 43/46/43 44/47/44 11/11/11 
f 22/25/22 45/48/45 44/47/44 43/46/43 
f 22/25/22 26/29/26 46/49/46 47/50/47 
f 25/28/25 48/51/48 46/49/46 26/29/26 
f 49/52/49 47/50/47 46/49/46 48/51/48 
f 49/52/49 50/53/50 51/54/51 47/50/47 
f 52/55/52 53/56/53 51/54/51 50/53/50 
f 8/8/8 45/48/45 51/54/51 53/56/53 
f 22/25/22 47/50/47 51/54/51 45/48/45 
f 54/57/54 55/58/55 56/59/56 57/60/57 
f 52/55/52 50/53/50 56/59/56 55/58/55 
f 49/52/49 57/60/57 56/59/56 50/53/50 
f 35/38/35 34/37/34 58/61/58 59/62/59 
f 33/36/33 60/63/60 58/61/58 34/37/34 
f 61/64/61 59/62/59 58/61/58 60/63/60 
f 7/7/7 13/13/13 62/65/62 63/66/63 
f 15/15/15 64/67/64 62/68/62 13/16/13 
f 65/69/65 63/66/63 62/65/62 64/70/64 
f 65/69/65 66/71/66 67/72/67 68/73/68 
f 69/74/69 70/75/70 67/72/67 66/71/66 
f 61/64/61 68/73/68 67/72/67 70/75/70 
f 61/64/61 60/63/60 71/76/71 68/73/68 
f 33/36/33 38/41/38 71/76/71 60/63/60 
f 7/7/7 63/66/63 71/76/71 38/41/38 
f 65/69/65 68/73/68 71/76/71 63/66/63 
f 15/15/15 17/20/17 72/77/72 73/78/73 
f 8/8/8 53/56/53 72/77/72 17/20/17 
f 52/55/52 73/78/73 72/77/72 53/56/53 
f 52/55/52 74/79/74 75/80/75 76/81/76 
f 77/82/77 78/83/78 75/80/75 74/79/74 
f 79/84/79 76/81/76 75/80/75 78/83/78 
f 79/84/79 80/85/80 81/86/81 76/81/76 
f 65/69/65 64/70/64 81/87/81 80/88/80 
f 15/15/15 73/78/73 81/86/81 64/67/64 
f 52/55/52 76/81/76 81/86/81 73/78/73 
f 52/55/52 55/58/55 82/89/82 74/79/74 
f 54/57/54 83/90/83 82/89/82 55/58/55 
f 77/82/77 74/79/74 82/89/82 83/90/83 
f 69/74/69 66/71/66 84/91/84 85/92/85 
f 65/69/65 86/93/86 84/91/84 66/71/66 
f 87/94/87 85/95/85 84/96/84 86/97/86 
f 65/69/65 80/88/80 88/98/88 86/93/86 
f 79/84/79 89/99/89 88/100/88 80/85/80 
f 87/94/87 86/97/86 88/100/88 89/99/89 
f 18/21/18 21/24/21 90/101/90 91/102/91 
f 24/27/24 92/103/92 90/101/90 21/24/21 
f 93/104/93 91/102/91 90/101/90 92/103/92 
f 25/28/25 28/31/28 94/105/94 95/106/95 
f 18/21/18 91/102/91 94/105/94 28/31/28 
f 93/104/93 95/106/95 94/105/94 91/102/91 
f 29/32/29 32/35/32 96/107/96 97/108/97 
f 35/38/35 98/109/98 96/107/96 32/35/32 
f 99/110/99 97/108/97 96/107/96 98/109/98 
f 24/27/24 41/44/41 100/111/100 101/112/101 
f 29/32/29 97/108/97 100/111/100 41/44/41 
f 99/110/99 101/112/101 100/111/100 97/108/97 
f 99/110/99 102/113/102 103/114/103 104/115/104 
f 105/116/105 106/117/106 103/114/103 102/113/102 
f 107/118/107 104/115/104 103/114/103 106/117/106 
f 107/118/107 108/119/108 109/120/109 104/115/104 
f 93/104/93 92/103/92 109/120/109 108/119/108 
f 24/27/24 101/112/101 109/120/109 92/103/92 
f 99/110/99 104/115/104 109/120/109 101/112/101 
f 49/52/49 48/51/48 110/121/110 111/122/111 
f 25/28/25 95/106/95 110/121/110 48/51/48 
f 93/104/93 111/122/111 110/121/110 95/106/95 
f 93/104/93 108/119/108 112/123/112 113/124/113 
f 107/118/107 114/125/114 112/123/112 108/119/108 
f 115/126/115 113/124/113 112/123/112 114/125/114 
f 115/126/115 116/127/116 117/128/117 113/124/113 
f 118/129/118 119/130/119 117/128/117 116/127/116 
f 49/52/49 111/122/111 117/128/117 119/130/119 
f 93/104/93 113/124/113 117/128/117 111/122/111 
f 54/57/54 57/60/57 120/131/120 121/132/121 
f 49/52/49 119/130/119 120/131/120 57/60/57 
f 118/129/118 121/132/121 120/131/120 119/130/119 
f 35/38/35 59/62/59 122/133/122 98/109/98 
f 61/64/61 123/134/123 122/133/122 59/62/59 
f 99/110/99 98/109/98 122/133/122 123/134/123 
f 61/64/61 70/75/70 124/135/124 125/136/125 
f 69/74/69 126/137/126 124/135/124 70/75/70 
f 127/138/127 125/136/125 124/135/124 126/137/126 
f 127/138/127 128/139/128 129/140/129 130/141/130 
f 131/142/131 132/143/132 129/144/129 128/145/128 
f 105/116/105 130/141/130 129/140/129 132/146/132 
f 105/116/105 102/113/102 133/147/133 130/141/130 
f 99/110/99 123/134/123 133/147/133 102/113/102 
f 61/64/61 125/136/125 133/147/133 123/134/123 
f 127/138/127 130/141/130 133/147/133 125/136/125 
f 79/84/79 78/83/78 134/148/134 135/149/135 
f 77/82/77 136/150/136 134/148/134 78/83/78 
f 118/129/118 135/149/135 134/148/134 136/150/136 
f 118/129/118 116/127/116 137/151/137 138/152/138 
f 115/126/115 139/153/139 137/151/137 116/127/116 
f 131/142/131 138/152/138 137/151/137 139/153/139 
f 131/142/131 128/145/128 140/154/140 138/152/138 
f 127/138/127 141/155/141 140/156/140 128/139/128 
f 79/84/79 135/149/135 140/154/140 141/157/141 
f 118/129/118 138/152/138 140/154/140 135/149/135 
f 77/82/77 83/90/83 142/158/142 136/150/136 
f 54/57/54 121/132/121 142/158/142 83/90/83 
f 118/129/118 136/150/136 142/158/142 121/132/121 
f 69/74/69 85/92/85 143/159/143 126/137/126 
f 87/94/87 144/160/144 143/161/143 85/95/85 
f 127/138/127 126/137/126 143/159/143 144/162/144 
f 87/94/87 89/99/89 145/163/145 144/160/144 
f 79/84/79 141/157/141 145/163/145 89/99/89 
f 127/138/127 144/162/144 145/164/145 141/155/141 
f 107/118/107 106/117/106 146/165/146 147/166/147 
f 105/116/105 148/167/148 146/165/146 106/117/106 
f 149/168/149 147/166/147 146/165/146 148/167/148 
f 115/126/115 114/125/114 150/169/150 151/170/151 
f 107/118/107 147/166/147 150/169/150 114/125/114 
f 149/168/149 151/170/151 150/169/150 147/166/147 
f 105/116/105 132/146/132 152/171/152 148/167/148 
f 131/142/131 153/172/153 152/173/152 132/143/132 
f 149/168/149 148/167/148 152/171/152 153/174/153 
f 131/142/131 139/153/139 154/175/154 153/172/153 
f 115/126/115 151/170/151 154/175/154 139/153/139 
f 149/168/149 153/172/153 154/175/154 151/170/151 
# 152 polygons

