# 3ds Max Wavefront OBJ Exporter v0.97b - (c)2007 guruware
# File Created: 22.10.2015 15:57:13

#
# object BlobMesh005
#

v  35.5144 4.1674 -46.8187
v  35.8552 4.6133 -48.5891
v  33.9758 4.0334 -49.1782
v  33.0511 3.5523 -48.7659
v  35.7087 4.7032 -50.9110
v  33.3868 3.8620 -51.0575
v  31.6053 3.0770 -51.5630
v  39.8693 3.7859 -50.5975
v  38.0364 4.6292 -50.9100
v  37.6955 4.6448 -49.0560
v  38.2133 4.1745 -48.2199
v  33.8536 3.7809 -52.8979
v  33.5151 3.2670 -53.8698
v  35.7076 4.4552 -53.2388
v  36.2414 3.5827 -55.0605
v  37.5733 4.4108 -52.7757
v  38.6339 3.7632 -53.3670
v  35.8009 -1.3325 -44.0185
v  35.7377 1.0076 -44.4906
v  33.8104 0.5236 -44.1763
v  33.4112 -1.3485 -43.8973
v  36.3563 3.2125 -45.5626
v  33.0621 1.3715 -45.1386
v  30.7962 -1.7050 -45.3577
v  39.4994 -1.7866 -45.2996
v  38.4204 0.6897 -45.2755
v  37.5301 0.4187 -44.8062
v  38.0608 -1.4770 -44.6646
v  29.4619 -2.1238 -46.9839
v  29.4643 0.0178 -48.0064
v  28.9739 -0.5306 -49.0127
v  28.6950 -2.3431 -48.6135
v  30.2578 1.9916 -50.5318
v  29.2882 -0.1724 -50.9400
v  28.8162 -2.4324 -51.0032
v  32.0295 3.2417 -49.2687
v  32.7762 3.0496 -48.1646
v  30.9080 2.6257 -51.3692
v  29.6538 -0.2727 -46.9559
v  30.5378 0.7268 -47.3047
v  29.8207 -1.9046 -46.0702
v  32.9413 2.2871 -46.6783
v  35.6744 3.8501 -46.0959
v  37.7861 3.9936 -47.2536
v  38.8294 3.5232 -48.0457
v  39.3400 0.0407 -45.3872
v  39.0464 1.0591 -46.2169
v  40.3509 -1.8826 -45.5930
v  40.9085 -1.9558 -46.5121
v  41.1437 0.8269 -48.6082
v  40.0657 2.3251 -48.3573
v  41.4502 2.4163 -51.6402
v  40.6274 3.2259 -50.8264
v  42.9364 -2.2602 -51.1753
v  42.6884 0.0988 -51.1740
v  42.0141 -0.4224 -49.3427
v  42.0952 -2.2934 -48.8848
v  29.6038 -0.7031 -52.7324
v  29.4622 -2.4956 -53.2631
v  30.5074 0.2751 -53.4066
v  30.7223 -2.3713 -55.5637
v  33.9924 3.1989 -54.8182
v  33.0148 2.6690 -54.1975
v  36.1166 2.9359 -55.8442
v  35.4111 2.1105 -56.5501
v  33.1809 -0.0200 -56.5899
v  32.2032 -0.4471 -56.3092
v  32.4979 0.5744 -55.7157
v  32.2051 -2.3042 -56.6683
v  31.3389 -2.2838 -56.4394
v  31.8131 1.5315 -53.8334
v  39.6376 3.4047 -52.9144
v  39.0624 3.1497 -54.0843
v  41.9965 0.0679 -53.9996
v  41.6379 -0.4114 -54.9919
v  40.9901 0.6749 -54.6443
v  42.1014 -2.2914 -55.1253
v  41.8070 -2.3327 -56.0242
v  40.8749 -2.3656 -56.6778
v  38.5480 0.5890 -56.9172
v  38.8447 2.1098 -55.6052
v  42.6440 -0.3731 -53.0624
v  42.8624 -2.2616 -53.5344
v  34.1404 -0.5377 -57.2164
v  33.6824 -2.3781 -57.2975
v  35.9716 -0.1968 -57.8907
v  35.9730 -2.5246 -58.1387
v  37.8601 -0.6599 -57.8463
v  38.3321 -2.5256 -58.0648
v  33.9829 -3.1961 -44.4288
v  35.8902 -3.6421 -44.6487
v  33.3723 -4.4681 -45.5612
v  36.8109 -5.9706 -46.3575
v  37.7026 -3.3010 -45.0402
v  38.6743 -3.9600 -45.6823
v  29.2265 -4.2504 -49.1852
v  29.8623 -4.6318 -48.2603
v  29.4464 -4.8221 -51.0925
v  31.1113 -7.1914 -50.9865
v  30.0219 -3.9924 -47.2134
v  30.9506 -5.1128 -47.6738
v  31.9734 -8.0472 -51.9637
v  32.9872 -8.2113 -49.9844
v  33.4758 -7.6233 -48.8420
v  32.7589 -8.6392 -52.2889
v  33.9769 -8.3710 -49.6239
v  36.2403 -7.5488 -47.9789
v  36.2689 -6.8228 -47.1748
v  33.3757 -6.1925 -47.1716
v  39.5975 -3.6791 -45.8567
v  39.4155 -4.7805 -46.6058
v  38.5018 -7.4594 -48.1320
v  39.5068 -7.1497 -48.5854
v  39.0712 -7.7488 -49.0711
v  41.0295 -7.9303 -51.1791
v  41.7063 -7.4470 -51.2683
v  40.5590 -6.1545 -48.6326
v  42.2451 -6.7668 -51.9831
v  41.5663 -5.0127 -48.7851
v  42.2666 -4.1421 -49.2935
v  42.8465 -4.5508 -51.1421
v  29.8379 -4.4228 -52.9049
v  30.8392 -5.5645 -53.7168
v  32.3079 -4.1669 -56.6773
v  32.7640 -5.2652 -56.1284
v  33.2589 -4.6696 -56.9879
v  35.7540 -7.0726 -57.4036
v  36.5585 -7.7371 -56.9096
v  34.5542 -8.2542 -55.7759
v  33.5293 -8.0039 -54.8972
v  36.8230 -8.1335 -56.2141
v  34.2733 -8.6563 -54.7955
v  32.1245 -6.9480 -54.2678
v  42.1074 -4.1312 -55.0966
v  41.3790 -5.1647 -54.9104
v  42.4032 -4.5818 -54.0776
v  40.5161 -8.0484 -53.4762
v  39.6022 -7.5233 -54.5988
v  39.4851 -8.1601 -54.1252
v  39.1201 -6.3697 -55.9166
v  38.7250 -5.2506 -57.2490
v  42.8780 -4.0928 -53.0132
v  34.0911 -4.2574 -57.4690
v  35.9398 -4.8464 -58.0489
v  37.8109 -4.3796 -58.0804
v  35.0371 -9.0067 -50.2395
v  36.8848 -8.7869 -49.7935
v  34.5911 -9.5382 -52.0871
v  36.9008 -9.4171 -52.1031
v  38.7568 -8.3953 -50.1346
v  39.2408 -8.7710 -51.9586
v  34.9323 -9.2593 -53.9592
v  36.7562 -8.9450 -54.4431
v  38.6520 -8.6294 -53.8543
# 154 vertices

vn -0.2087 0.9092 0.3602
vn -0.1380 0.9794 0.1474
vn -0.3711 0.9227 0.1044
vn -0.3778 0.9169 0.1288
vn -0.1591 0.9864 -0.0411
vn -0.3717 0.9274 -0.0409
vn -0.5259 0.8239 -0.2112
vn 0.5597 0.8248 0.0798
vn 0.2589 0.9629 -0.0765
vn 0.2253 0.9594 0.1695
vn 0.5113 0.7778 0.3656
vn -0.3650 0.8952 -0.2557
vn -0.3575 0.8874 -0.2911
vn -0.1620 0.9385 -0.3049
vn 0.0328 0.8408 -0.5403
vn 0.2258 0.9368 -0.2673
vn 0.4484 0.7277 -0.5191
vn 0.1613 -0.0371 0.9862
vn 0.1533 0.3185 0.9355
vn -0.2258 0.3589 0.9056
vn -0.2547 -0.0566 0.9654
vn 0.1717 0.5915 0.7878
vn -0.5315 0.5920 0.6058
vn -0.5555 -0.0276 0.8311
vn 0.3368 -0.0848 0.9378
vn 0.3727 0.3154 0.8727
vn 0.3251 0.2546 0.9108
vn 0.3452 -0.0297 0.9381
vn -0.9169 -0.1028 0.3857
vn -0.8469 0.4527 0.2789
vn -0.9471 0.3014 0.1104
vn -0.9707 -0.0760 0.2280
vn -0.7891 0.6143 -0.0093
vn -0.9244 0.3360 -0.1806
vn -0.9864 -0.0352 -0.1603
vn -0.5591 0.7770 0.2893
vn -0.5817 0.6758 0.4526
vn -0.7267 0.6392 -0.2517
vn -0.7492 0.4269 0.5065
vn -0.5643 0.6524 0.5059
vn -0.7386 -0.0866 0.6686
vn -0.5473 0.6829 0.4839
vn -0.1751 0.7273 0.6636
vn 0.4554 0.7232 0.5192
vn 0.6322 0.6088 0.4792
vn 0.5664 0.3434 0.7492
vn 0.6660 0.5195 0.5353
vn 0.6738 -0.0327 0.7382
vn 0.8373 0.0105 0.5467
vn 0.7892 0.4100 0.4573
vn 0.7055 0.5195 0.4821
vn 0.7851 0.6160 -0.0647
vn 0.6973 0.7059 0.1245
vn 0.9862 0.0490 0.1583
vn 0.9305 0.3248 0.1695
vn 0.8788 0.2641 0.3974
vn 0.9146 0.0617 0.3996
vn -0.8745 0.3165 -0.3677
vn -0.9200 -0.0347 -0.3903
vn -0.7283 0.4770 -0.4920
vn -0.8302 0.0136 -0.5573
vn -0.4382 0.7358 -0.5162
vn -0.6352 0.5262 -0.5654
vn 0.0541 0.6938 -0.7181
vn -0.1778 0.5801 -0.7949
vn -0.4076 0.3546 -0.8415
vn -0.5902 0.3831 -0.7106
vn -0.6082 0.5526 -0.5699
vn -0.3244 0.0814 -0.9424
vn -0.6329 0.0648 -0.7715
vn -0.6687 0.5338 -0.5176
vn 0.5295 0.7774 -0.3396
vn 0.4565 0.7650 -0.4544
vn 0.7429 0.4846 -0.4618
vn 0.6760 0.4323 -0.5968
vn 0.6339 0.5437 -0.5501
vn 0.9255 0.1058 -0.3638
vn 0.7509 0.0882 -0.6544
vn 0.5704 0.0418 -0.8203
vn 0.4033 0.4897 -0.7730
vn 0.4513 0.6165 -0.6452
vn 0.9229 0.2983 -0.2435
vn 0.9624 0.0537 -0.2664
vn -0.3797 0.2471 -0.8915
vn -0.3676 0.0675 -0.9275
vn -0.1168 0.3193 -0.9404
vn -0.1560 0.0482 -0.9866
vn 0.2481 0.3098 -0.9179
vn 0.2937 0.0484 -0.9547
vn -0.1779 -0.4400 0.8802
vn 0.1128 -0.4357 0.8930
vn -0.3436 -0.6012 0.7215
vn 0.1240 -0.6234 0.7720
vn 0.2893 -0.3535 0.8896
vn 0.2987 -0.4437 0.8449
vn -0.8858 -0.4252 0.1861
vn -0.6650 -0.6062 0.4362
vn -0.8898 -0.4387 -0.1259
vn -0.7203 -0.6861 0.1023
vn -0.6327 -0.5054 0.5867
vn -0.4877 -0.6602 0.5713
vn -0.6924 -0.7161 -0.0882
vn -0.4315 -0.8061 0.4051
vn -0.3472 -0.7559 0.5551
vn -0.5449 -0.8353 -0.0728
vn -0.3158 -0.7633 0.5636
vn -0.0235 -0.7878 0.6155
vn -0.0471 -0.7082 0.7045
vn -0.3243 -0.6883 0.6489
vn 0.5321 -0.4202 0.7351
vn 0.5009 -0.5392 0.6770
vn 0.2888 -0.7350 0.6135
vn 0.4951 -0.5978 0.6305
vn 0.3300 -0.8141 0.4778
vn 0.5054 -0.8325 0.2270
vn 0.7596 -0.5965 0.2594
vn 0.5969 -0.5199 0.6111
vn 0.8650 -0.4972 -0.0678
vn 0.7101 -0.4220 0.5637
vn 0.8787 -0.2039 0.4316
vn 0.9633 -0.1994 0.1799
vn -0.8596 -0.3666 -0.3560
vn -0.7671 -0.4681 -0.4386
vn -0.6120 -0.3153 -0.7253
vn -0.6461 -0.4846 -0.5897
vn -0.4265 -0.2127 -0.8791
vn -0.1403 -0.4839 -0.8638
vn 0.2353 -0.6021 -0.7630
vn -0.4072 -0.6927 -0.5952
vn -0.5966 -0.6200 -0.5096
vn 0.2525 -0.8093 -0.5304
vn -0.4568 -0.7741 -0.4383
vn -0.6946 -0.5344 -0.4816
vn 0.7654 -0.2950 -0.5720
vn 0.5786 -0.5277 -0.6219
vn 0.8819 -0.2841 -0.3763
vn 0.5309 -0.7520 -0.3906
vn 0.5998 -0.4652 -0.6510
vn 0.3977 -0.8321 -0.3865
vn 0.5603 -0.5095 -0.6531
vn 0.5264 -0.4412 -0.7268
vn 0.9721 -0.1426 -0.1861
vn -0.3816 -0.1150 -0.9171
vn -0.1513 -0.1686 -0.9740
vn 0.2565 -0.2098 -0.9435
vn -0.1481 -0.9066 0.3952
vn 0.1435 -0.8814 0.4500
vn -0.2270 -0.9708 0.0779
vn 0.1602 -0.9863 0.0384
vn 0.2683 -0.8854 0.3796
vn 0.3622 -0.9320 0.0122
vn -0.1572 -0.9398 -0.3034
vn 0.1597 -0.9324 -0.3243
vn 0.3323 -0.9008 -0.2793
# 154 vertex normals

vt 0.4837 0.8039 1.0167
vt 0.5000 0.8937 1.0045
vt 0.3750 0.8779 0.9958
vt 0.3601 0.8253 0.9898
vt 0.5000 1.0000 1.0000
vt 0.2500 0.8937 1.0045
vt 0.2337 0.8039 1.0167
vt 0.7337 0.8039 1.0167
vt 0.7500 0.8937 1.0045
vt 0.6250 0.8779 0.9958
vt 0.6101 0.8253 0.9898
vt 0.1250 0.8779 0.9958
vt 0.1101 0.8253 0.9898
vt 0.0000 0.8937 1.0045
vt 0.9837 0.8039 1.0167
vt 1.1101 0.8253 0.9898
vt 1.1250 0.8779 0.9958
vt 1.0000 0.8937 1.0045
vt 0.8750 0.8779 0.9958
vt 0.8601 0.8253 0.9898
vt 0.5000 0.5000 1.0000
vt 0.5000 0.6063 1.0045
vt 0.4558 0.5852 0.9958
vt 0.4468 0.5000 1.0045
vt 0.5147 0.7195 1.0223
vt 0.4315 0.6408 0.9663
vt 0.3843 0.5000 1.0192
vt 0.5909 0.5000 1.0107
vt 0.5701 0.6080 0.9898
vt 0.5442 0.5852 0.9958
vt 0.5532 0.5000 1.0045
vt 0.3409 0.5000 1.0107
vt 0.3201 0.6080 0.9898
vt 0.2942 0.5852 0.9958
vt 0.3032 0.5000 1.0045
vt 0.2647 0.7195 1.0223
vt 0.2500 0.6063 1.0045
vt 0.2500 0.5000 1.0000
vt 0.3226 0.7977 1.0079
vt 0.3704 0.7850 0.9685
vt 0.2420 0.7644 1.0236
vt 0.3431 0.5842 1.0079
vt 0.3468 0.6426 0.9550
vt 0.3603 0.5000 1.0511
vt 0.4069 0.7192 0.9450
vt 0.4920 0.7644 1.0236
vt 0.5726 0.7977 1.0079
vt 0.6204 0.7850 0.9685
vt 0.5931 0.5842 1.0079
vt 0.5968 0.6426 0.9550
vt 0.6103 0.5000 1.0511
vt 0.6343 0.5000 1.0192
vt 0.6815 0.6408 0.9663
vt 0.6569 0.7192 0.9450
vt 0.7647 0.7195 1.0223
vt 0.7420 0.7644 1.0236
vt 0.7500 0.5000 1.0000
vt 0.7500 0.6063 1.0045
vt 0.7058 0.5852 0.9958
vt 0.6968 0.5000 1.0045
vt 0.2058 0.5852 0.9958
vt 0.1968 0.5000 1.0045
vt 0.1815 0.6408 0.9663
vt 0.1343 0.5000 1.0192
vt 0.0726 0.7977 1.0079
vt 0.1204 0.7850 0.9685
vt 0.9920 0.7644 1.0236
vt 1.0726 0.7977 1.0079
vt 0.0147 0.7195 1.0223
vt -0.0080 0.7644 1.0236
vt 0.0701 0.6080 0.9898
vt 0.0931 0.5842 1.0079
vt 0.0968 0.6426 0.9550
vt 0.0909 0.5000 1.0107
vt 0.1103 0.5000 1.0511
vt 0.1569 0.7192 0.9450
vt 0.8226 0.7977 1.0079
vt 0.8704 0.7850 0.9685
vt 0.8201 0.6080 0.9898
vt 0.8431 0.5842 1.0079
vt 0.8468 0.6426 0.9550
vt 0.8409 0.5000 1.0107
vt 0.8603 0.5000 1.0511
vt 0.8843 0.5000 1.0192
vt 0.9315 0.6408 0.9663
vt 0.9069 0.7192 0.9450
vt -0.0931 0.7192 0.9450
vt -0.0685 0.6408 0.9663
vt 0.7942 0.5852 0.9958
vt 0.8032 0.5000 1.0045
vt 0.0442 0.5852 0.9958
vt 0.0532 0.5000 1.0045
vt -0.0000 0.6063 1.0045
vt 1.0000 0.5000 1.0000
vt 1.0532 0.5000 1.0045
vt 1.0442 0.5852 0.9958
vt 1.0000 0.6063 1.0045
vt -0.0442 0.5852 0.9958
vt 0.9468 0.5000 1.0045
vt 0.9558 0.5852 0.9958
vt 0.4558 0.4148 0.9958
vt 0.5000 0.3937 1.0045
vt 0.4315 0.3592 0.9663
vt 0.5147 0.2805 1.0223
vt 0.5442 0.4148 0.9958
vt 0.5701 0.3920 0.9898
vt 0.2942 0.4148 0.9958
vt 0.3201 0.3920 0.9898
vt 0.2500 0.3937 1.0045
vt 0.2647 0.2805 1.0223
vt 0.3431 0.4158 1.0079
vt 0.3468 0.3574 0.9550
vt 0.2420 0.2356 1.0236
vt 0.3226 0.2023 1.0079
vt 0.3704 0.2150 0.9685
vt 0.2337 0.1961 1.0167
vt 0.3601 0.1747 0.9898
vt 0.4837 0.1961 1.0167
vt 0.4920 0.2356 1.0236
vt 0.4069 0.2808 0.9450
vt 0.5931 0.4158 1.0079
vt 0.5968 0.3574 0.9550
vt 0.5726 0.2023 1.0079
vt 0.6204 0.2150 0.9685
vt 0.6101 0.1747 0.9898
vt 0.7337 0.1961 1.0167
vt 0.7420 0.2356 1.0236
vt 0.6569 0.2808 0.9450
vt 0.7647 0.2805 1.0223
vt 0.6815 0.3592 0.9663
vt 0.7058 0.4148 0.9958
vt 0.7500 0.3937 1.0045
vt 0.2058 0.4148 0.9958
vt 0.1815 0.3592 0.9663
vt 0.0931 0.4158 1.0079
vt 0.0968 0.3574 0.9550
vt 0.0701 0.3920 0.9898
vt 0.0147 0.2805 1.0223
vt -0.0080 0.2356 1.0236
vt 0.0726 0.2023 1.0079
vt 0.1204 0.2150 0.9685
vt 0.9837 0.1961 1.0167
vt 1.1101 0.1747 0.9898
vt 1.0726 0.2023 1.0079
vt 0.9920 0.2356 1.0236
vt 0.1101 0.1747 0.9898
vt 0.1569 0.2808 0.9450
vt 0.8431 0.4158 1.0079
vt 0.8468 0.3574 0.9550
vt 0.8201 0.3920 0.9898
vt 0.8226 0.2023 1.0079
vt 0.8704 0.2150 0.9685
vt 0.8601 0.1747 0.9898
vt 0.9069 0.2808 0.9450
vt -0.0685 0.3592 0.9663
vt -0.0931 0.2808 0.9450
vt 0.9315 0.3592 0.9663
vt 0.7942 0.4148 0.9958
vt 0.0442 0.4148 0.9958
vt 1.0000 0.3937 1.0045
vt 1.0442 0.4148 0.9958
vt -0.0000 0.3937 1.0045
vt 0.9558 0.4148 0.9958
vt -0.0442 0.4148 0.9958
vt 0.3750 0.1221 0.9958
vt 0.5000 0.1063 1.0045
vt 0.2500 0.1063 1.0045
vt 0.5000 0.0000 1.0000
vt 0.6250 0.1221 0.9958
vt 0.7500 0.1063 1.0045
vt 0.1250 0.1221 0.9958
vt 1.0000 0.1063 1.0045
vt 1.1250 0.1221 0.9958
vt 0.0000 0.1063 1.0045
vt 0.8750 0.1221 0.9958
# 175 texture coords

g BlobMesh005
s 1
f 1/1/1 2/2/2 3/3/3 4/4/4 
f 5/5/5 6/6/6 3/3/3 2/2/2 
f 7/7/7 4/4/4 3/3/3 6/6/6 
f 8/8/8 9/9/9 10/10/10 11/11/11 
f 5/5/5 2/2/2 10/10/10 9/9/9 
f 1/1/1 11/11/11 10/10/10 2/2/2 
f 7/7/7 6/6/6 12/12/12 13/13/13 
f 5/5/5 14/14/14 12/12/12 6/6/6 
f 15/15/15 13/16/13 12/17/12 14/18/14 
f 5/5/5 9/9/9 16/19/16 14/18/14 
f 8/8/8 17/20/17 16/19/16 9/9/9 
f 15/15/15 14/18/14 16/19/16 17/20/17 
f 18/21/18 19/22/19 20/23/20 21/24/21 
f 22/25/22 23/26/23 20/23/20 19/22/19 
f 24/27/24 21/24/21 20/23/20 23/26/23 
f 25/28/25 26/29/26 27/30/27 28/31/28 
f 22/25/22 19/22/19 27/30/27 26/29/26 
f 18/21/18 28/31/28 27/30/27 19/22/19 
f 29/32/29 30/33/30 31/34/31 32/35/32 
f 33/36/33 34/37/34 31/34/31 30/33/30 
f 35/38/35 32/35/32 31/34/31 34/37/34 
f 1/1/1 4/4/4 36/39/36 37/40/37 
f 7/7/7 38/41/38 36/39/36 4/4/4 
f 33/36/33 37/40/37 36/39/36 38/41/38 
f 33/36/33 30/33/30 39/42/39 40/43/40 
f 29/32/29 41/44/41 39/42/39 30/33/30 
f 24/27/24 40/43/40 39/42/39 41/44/41 
f 24/27/24 23/26/23 42/45/42 40/43/40 
f 22/25/22 43/46/43 42/45/42 23/26/23 
f 1/1/1 37/40/37 42/45/42 43/46/43 
f 33/36/33 40/43/40 42/45/42 37/40/37 
f 8/8/8 11/11/11 44/47/44 45/48/45 
f 1/1/1 43/46/43 44/47/44 11/11/11 
f 22/25/22 45/48/45 44/47/44 43/46/43 
f 22/25/22 26/29/26 46/49/46 47/50/47 
f 25/28/25 48/51/48 46/49/46 26/29/26 
f 49/52/49 47/50/47 46/49/46 48/51/48 
f 49/52/49 50/53/50 51/54/51 47/50/47 
f 52/55/52 53/56/53 51/54/51 50/53/50 
f 8/8/8 45/48/45 51/54/51 53/56/53 
f 22/25/22 47/50/47 51/54/51 45/48/45 
f 54/57/54 55/58/55 56/59/56 57/60/57 
f 52/55/52 50/53/50 56/59/56 55/58/55 
f 49/52/49 57/60/57 56/59/56 50/53/50 
f 35/38/35 34/37/34 58/61/58 59/62/59 
f 33/36/33 60/63/60 58/61/58 34/37/34 
f 61/64/61 59/62/59 58/61/58 60/63/60 
f 7/7/7 13/13/13 62/65/62 63/66/63 
f 15/15/15 64/67/64 62/68/62 13/16/13 
f 65/69/65 63/66/63 62/65/62 64/70/64 
f 65/69/65 66/71/66 67/72/67 68/73/68 
f 69/74/69 70/75/70 67/72/67 66/71/66 
f 61/64/61 68/73/68 67/72/67 70/75/70 
f 61/64/61 60/63/60 71/76/71 68/73/68 
f 33/36/33 38/41/38 71/76/71 60/63/60 
f 7/7/7 63/66/63 71/76/71 38/41/38 
f 65/69/65 68/73/68 71/76/71 63/66/63 
f 15/15/15 17/20/17 72/77/72 73/78/73 
f 8/8/8 53/56/53 72/77/72 17/20/17 
f 52/55/52 73/78/73 72/77/72 53/56/53 
f 52/55/52 74/79/74 75/80/75 76/81/76 
f 77/82/77 78/83/78 75/80/75 74/79/74 
f 79/84/79 76/81/76 75/80/75 78/83/78 
f 79/84/79 80/85/80 81/86/81 76/81/76 
f 65/69/65 64/70/64 81/87/81 80/88/80 
f 15/15/15 73/78/73 81/86/81 64/67/64 
f 52/55/52 76/81/76 81/86/81 73/78/73 
f 52/55/52 55/58/55 82/89/82 74/79/74 
f 54/57/54 83/90/83 82/89/82 55/58/55 
f 77/82/77 74/79/74 82/89/82 83/90/83 
f 69/74/69 66/71/66 84/91/84 85/92/85 
f 65/69/65 86/93/86 84/91/84 66/71/66 
f 87/94/87 85/95/85 84/96/84 86/97/86 
f 65/69/65 80/88/80 88/98/88 86/93/86 
f 79/84/79 89/99/89 88/100/88 80/85/80 
f 87/94/87 86/97/86 88/100/88 89/99/89 
f 18/21/18 21/24/21 90/101/90 91/102/91 
f 24/27/24 92/103/92 90/101/90 21/24/21 
f 93/104/93 91/102/91 90/101/90 92/103/92 
f 25/28/25 28/31/28 94/105/94 95/106/95 
f 18/21/18 91/102/91 94/105/94 28/31/28 
f 93/104/93 95/106/95 94/105/94 91/102/91 
f 29/32/29 32/35/32 96/107/96 97/108/97 
f 35/38/35 98/109/98 96/107/96 32/35/32 
f 99/110/99 97/108/97 96/107/96 98/109/98 
f 24/27/24 41/44/41 100/111/100 101/112/101 
f 29/32/29 97/108/97 100/111/100 41/44/41 
f 99/110/99 101/112/101 100/111/100 97/108/97 
f 99/110/99 102/113/102 103/114/103 104/115/104 
f 105/116/105 106/117/106 103/114/103 102/113/102 
f 107/118/107 104/115/104 103/114/103 106/117/106 
f 107/118/107 108/119/108 109/120/109 104/115/104 
f 93/104/93 92/103/92 109/120/109 108/119/108 
f 24/27/24 101/112/101 109/120/109 92/103/92 
f 99/110/99 104/115/104 109/120/109 101/112/101 
f 49/52/49 48/51/48 110/121/110 111/122/111 
f 25/28/25 95/106/95 110/121/110 48/51/48 
f 93/104/93 111/122/111 110/121/110 95/106/95 
f 93/104/93 108/119/108 112/123/112 113/124/113 
f 107/118/107 114/125/114 112/123/112 108/119/108 
f 115/126/115 113/124/113 112/123/112 114/125/114 
f 115/126/115 116/127/116 117/128/117 113/124/113 
f 118/129/118 119/130/119 117/128/117 116/127/116 
f 49/52/49 111/122/111 117/128/117 119/130/119 
f 93/104/93 113/124/113 117/128/117 111/122/111 
f 54/57/54 57/60/57 120/131/120 121/132/121 
f 49/52/49 119/130/119 120/131/120 57/60/57 
f 118/129/118 121/132/121 120/131/120 119/130/119 
f 35/38/35 59/62/59 122/133/122 98/109/98 
f 61/64/61 123/134/123 122/133/122 59/62/59 
f 99/110/99 98/109/98 122/133/122 123/134/123 
f 61/64/61 70/75/70 124/135/124 125/136/125 
f 69/74/69 126/137/126 124/135/124 70/75/70 
f 127/138/127 125/136/125 124/135/124 126/137/126 
f 127/138/127 128/139/128 129/140/129 130/141/130 
f 131/142/131 132/143/132 129/144/129 128/145/128 
f 105/116/105 130/141/130 129/140/129 132/146/132 
f 105/116/105 102/113/102 133/147/133 130/141/130 
f 99/110/99 123/134/123 133/147/133 102/113/102 
f 61/64/61 125/136/125 133/147/133 123/134/123 
f 127/138/127 130/141/130 133/147/133 125/136/125 
f 79/84/79 78/83/78 134/148/134 135/149/135 
f 77/82/77 136/150/136 134/148/134 78/83/78 
f 118/129/118 135/149/135 134/148/134 136/150/136 
f 118/129/118 116/127/116 137/151/137 138/152/138 
f 115/126/115 139/153/139 137/151/137 116/127/116 
f 131/142/131 138/152/138 137/151/137 139/153/139 
f 131/142/131 128/145/128 140/154/140 138/152/138 
f 127/138/127 141/155/141 140/156/140 128/139/128 
f 79/84/79 135/149/135 140/154/140 141/157/141 
f 118/129/118 138/152/138 140/154/140 135/149/135 
f 77/82/77 83/90/83 142/158/142 136/150/136 
f 54/57/54 121/132/121 142/158/142 83/90/83 
f 118/129/118 136/150/136 142/158/142 121/132/121 
f 69/74/69 85/92/85 143/159/143 126/137/126 
f 87/94/87 144/160/144 143/161/143 85/95/85 
f 127/138/127 126/137/126 143/159/143 144/162/144 
f 87/94/87 89/99/89 145/163/145 144/160/144 
f 79/84/79 141/157/141 145/163/145 89/99/89 
f 127/138/127 144/162/144 145/164/145 141/155/141 
f 107/118/107 106/117/106 146/165/146 147/166/147 
f 105/116/105 148/167/148 146/165/146 106/117/106 
f 149/168/149 147/166/147 146/165/146 148/167/148 
f 115/126/115 114/125/114 150/169/150 151/170/151 
f 107/118/107 147/166/147 150/169/150 114/125/114 
f 149/168/149 151/170/151 150/169/150 147/166/147 
f 105/116/105 132/146/132 152/171/152 148/167/148 
f 131/142/131 153/172/153 152/173/152 132/143/132 
f 149/168/149 148/167/148 152/171/152 153/174/153 
f 131/142/131 139/153/139 154/175/154 153/172/153 
f 115/126/115 151/170/151 154/175/154 139/153/139 
f 149/168/149 153/172/153 154/175/154 151/170/151 
# 152 polygons

