# 3ds Max Wavefront OBJ Exporter v0.97b - (c)2007 guruware
# File Created: 22.10.2015 15:56:54

#
# object BlobMesh005
#

v  41.4714 8.6781 -52.3676
v  41.7177 9.3921 -54.2006
v  39.7834 9.5123 -54.9858
v  38.8643 8.9943 -54.6220
v  41.3783 9.9641 -56.5806
v  38.9982 9.7564 -56.9200
v  36.9910 9.0379 -57.5200
v  45.4182 8.3444 -55.4521
v  43.6479 9.4711 -56.1035
v  43.5032 9.1446 -54.2707
v  44.0693 8.4766 -53.1932
v  39.0684 9.7153 -58.7055
v  38.4375 9.2883 -59.6830
v  40.9012 9.7307 -58.8502
v  41.0960 8.7635 -60.4462
v  42.7881 9.3222 -57.9904
v  43.6072 8.6993 -58.2895
v  41.6594 3.2014 -49.2794
v  41.8695 5.4611 -49.7661
v  39.9496 5.2321 -50.1107
v  39.3154 3.4460 -49.7918
v  42.4250 7.4712 -50.7380
v  39.3114 6.0632 -51.1847
v  36.7654 3.1456 -51.3051
v  45.4600 2.8386 -49.9703
v  44.6482 5.1460 -50.2115
v  43.6693 4.8108 -49.7176
v  43.9651 2.9734 -49.5065
v  35.3674 3.1394 -52.9445
v  35.5827 5.4685 -54.2342
v  34.9084 5.0642 -55.1519
v  34.5895 3.1417 -54.5177
v  35.7376 7.9096 -56.6005
v  34.5637 5.7318 -57.0718
v  34.0771 3.4262 -56.8617
v  37.7802 8.8701 -55.2020
v  38.6070 8.3221 -54.0097
v  36.2550 8.6002 -57.3508
v  35.8335 4.9982 -53.1756
v  36.6735 6.0255 -53.5654
v  35.7660 3.1861 -52.0396
v  38.9647 7.1713 -52.5401
v  41.6560 8.2330 -51.5548
v  43.7194 8.1888 -52.2392
v  44.6745 7.8663 -52.8226
v  45.5597 4.6453 -50.3917
v  45.3071 5.5597 -51.1444
v  46.3203 2.7646 -50.1148
v  46.8559 2.6644 -50.9694
v  47.1899 5.5106 -53.3314
v  45.9275 6.8394 -53.1310
v  46.6256 6.9165 -56.3188
v  46.0863 7.7077 -55.5914
v  48.1974 2.2193 -55.6549
v  47.9639 4.5709 -55.7557
v  47.9485 4.2994 -53.9004
v  47.9896 2.4633 -53.3568
v  34.5153 5.4361 -58.8716
v  34.3042 3.6363 -59.1674
v  35.3327 6.5344 -59.6559
v  35.2384 3.6733 -61.5328
v  38.8271 9.0224 -60.5690
v  37.7897 8.7291 -60.0284
v  40.8816 8.2271 -61.1912
v  40.0896 7.6428 -62.0299
v  37.8318 5.8361 -62.7084
v  36.8534 5.4861 -62.4888
v  37.3210 6.4468 -61.8514
v  36.6516 3.6469 -62.5738
v  35.7844 3.6752 -62.3847
v  36.5191 7.7583 -59.8568
v  44.6232 8.4092 -57.7491
v  43.8393 8.0338 -58.8592
v  46.9325 4.7394 -58.6505
v  46.6424 4.2641 -59.6421
v  45.9175 5.4594 -59.4674
v  46.7721 2.3592 -59.5718
v  46.3288 2.3438 -60.4697
v  45.3322 2.4064 -61.1938
v  43.2713 5.4398 -61.7425
v  43.6184 6.8141 -60.3112
v  47.5554 4.1845 -57.6201
v  47.7044 2.3201 -58.0064
v  38.6980 5.2699 -63.1508
v  38.1544 3.4845 -63.1920
v  40.5533 5.4147 -63.1662
v  40.4526 3.1451 -63.3997
v  42.4177 4.5549 -62.7578
v  42.8041 2.6680 -62.9067
v  39.5777 1.5124 -49.9077
v  41.3749 0.8115 -49.4274
v  38.8100 0.2236 -50.7891
v  41.9134 -1.7119 -50.6102
v  43.2974 1.0910 -49.5400
v  44.2227 0.4963 -50.0680
v  34.7054 1.3444 -54.7800
v  35.3043 0.8188 -53.8087
v  34.2251 1.0822 -56.5772
v  35.5836 -1.2735 -56.0889
v  35.6503 1.2785 -52.8752
v  36.2562 0.1859 -53.1015
v  36.2526 -2.0728 -56.8323
v  37.6191 -2.5829 -54.7093
v  38.1909 -2.3508 -53.5625
v  37.0516 -2.6783 -57.0296
v  38.6665 -2.9290 -54.3401
v  40.9810 -3.0381 -52.3757
v  41.1375 -2.4400 -51.5332
v  38.4100 -1.3083 -52.0694
v  45.2592 0.9255 -50.3060
v  44.8432 -0.2800 -51.0229
v  43.2267 -3.2643 -52.4255
v  44.2273 -2.8066 -53.0148
v  43.7874 -3.4467 -53.4492
v  45.4262 -3.3717 -55.8199
v  46.0647 -2.9653 -55.9035
v  45.4568 -1.6401 -53.1839
v  46.4978 -2.2666 -56.6041
v  46.7943 -0.3290 -53.4806
v  47.7455 0.5797 -54.0152
v  47.6253 -0.0788 -55.8988
v  34.3377 1.7163 -58.4997
v  35.1490 0.6948 -59.1545
v  36.9428 1.7664 -62.3057
v  37.3847 0.6072 -61.4340
v  37.9683 1.1865 -62.4299
v  40.3750 -1.5403 -61.8759
v  41.1937 -2.4458 -61.1887
v  39.1588 -2.4307 -60.4079
v  37.9928 -1.9439 -59.6123
v  41.4638 -2.9527 -60.5068
v  38.7296 -2.6350 -59.4851
v  36.4518 -0.7213 -59.3021
v  46.5567 0.5444 -59.7316
v  45.7961 -0.3802 -59.5311
v  46.7889 0.0898 -58.7870
v  44.8095 -3.0438 -58.0808
v  44.0315 -2.6391 -59.0623
v  43.8632 -3.2240 -58.5815
v  43.6714 -1.6654 -60.2439
v  43.4204 -0.3998 -61.5588
v  47.3778 0.4648 -57.7350
v  38.8129 1.5502 -62.9478
v  40.6965 0.7650 -62.8276
v  42.5326 0.8352 -62.5801
v  39.7456 -3.5279 -54.9480
v  41.6792 -4.0081 -54.2471
v  39.0447 -3.6438 -56.8816
v  41.4346 -4.1561 -56.6370
v  43.4654 -3.8956 -54.5266
v  43.6944 -3.9290 -56.4090
v  39.3243 -3.3249 -58.6677
v  41.2066 -3.6695 -58.8967
v  43.0440 -3.7179 -58.2463
# 154 vertices

vn -0.1325 0.8655 0.4831
vn 0.0463 0.9516 0.3038
vn -0.2179 0.9266 0.3065
vn -0.3531 0.8356 0.4209
vn 0.0834 0.9960 0.0326
vn -0.2532 0.9611 0.1105
vn -0.4703 0.8817 -0.0364
vn 0.6173 0.7846 0.0579
vn 0.4151 0.9080 -0.0573
vn 0.3061 0.9084 0.2849
vn 0.5313 0.7433 0.4065
vn -0.1561 0.9637 -0.2166
vn -0.4418 0.7962 -0.4135
vn 0.1374 0.9310 -0.3380
vn 0.2990 0.7802 -0.5494
vn 0.3950 0.8655 -0.3081
vn 0.4811 0.7742 -0.4112
vn -0.0687 0.0703 0.9952
vn -0.0656 0.3482 0.9351
vn -0.3643 0.4159 0.8333
vn -0.3835 0.1051 0.9175
vn 0.0765 0.6294 0.7733
vn -0.5024 0.5667 0.6530
vn -0.5880 0.0842 0.8045
vn 0.2463 0.0119 0.9691
vn 0.3879 0.4335 0.8134
vn 0.2139 0.2841 0.9346
vn 0.2151 0.0280 0.9762
vn -0.9059 0.0760 0.4166
vn -0.8305 0.3863 0.4012
vn -0.8787 0.3286 0.3463
vn -0.9358 0.0718 0.3451
vn -0.7700 0.6002 0.2164
vn -0.9297 0.3524 0.1069
vn -0.9941 0.0714 0.0816
vn -0.4608 0.7789 0.4255
vn -0.5119 0.6096 0.6053
vn -0.6961 0.7164 -0.0469
vn -0.6759 0.4702 0.5676
vn -0.5241 0.5937 0.6106
vn -0.7390 0.0933 0.6672
vn -0.5081 0.5972 0.6206
vn -0.1895 0.7293 0.6575
vn 0.4146 0.7297 0.5437
vn 0.5602 0.6752 0.4799
vn 0.6049 0.4238 0.6741
vn 0.6245 0.5636 0.5407
vn 0.6108 -0.0156 0.7916
vn 0.8450 -0.0503 0.5324
vn 0.7749 0.5051 0.3801
vn 0.6740 0.6030 0.4268
vn 0.8023 0.5697 -0.1782
vn 0.7762 0.6289 0.0441
vn 0.9955 -0.0664 -0.0682
vn 0.9467 0.3091 -0.0912
vn 0.9361 0.2755 0.2187
vn 0.9528 -0.0617 0.2971
vn -0.9250 0.3199 -0.2049
vn -0.9674 0.0234 -0.2520
vn -0.7552 0.5102 -0.4115
vn -0.8506 -0.0145 -0.5256
vn -0.2328 0.7789 -0.5824
vn -0.4913 0.7124 -0.5012
vn 0.3359 0.6505 -0.6812
vn 0.0602 0.6118 -0.7887
vn -0.3255 0.4693 -0.8209
vn -0.5527 0.4220 -0.7187
vn -0.4896 0.6140 -0.6191
vn -0.2790 -0.0505 -0.9590
vn -0.6472 -0.0314 -0.7617
vn -0.6222 0.6288 -0.4663
vn 0.5727 0.7236 -0.3853
vn 0.5854 0.5734 -0.5732
vn 0.8118 0.3974 -0.4279
vn 0.7582 0.2918 -0.5831
vn 0.6099 0.5218 -0.5964
vn 0.8969 -0.0158 -0.4420
vn 0.7262 -0.0119 -0.6874
vn 0.5836 -0.0158 -0.8119
vn 0.5788 0.4365 -0.6888
vn 0.5641 0.5432 -0.6219
vn 0.9131 0.2448 -0.3260
vn 0.9264 -0.0307 -0.3752
vn -0.1657 0.2539 -0.9529
vn -0.2693 -0.0584 -0.9613
vn 0.1724 0.3187 -0.9321
vn 0.0639 -0.0535 -0.9965
vn 0.4195 0.2772 -0.8644
vn 0.3968 -0.0336 -0.9173
vn -0.3846 -0.2193 0.8967
vn -0.1502 -0.2795 0.9483
vn -0.4983 -0.3922 0.7732
vn 0.0200 -0.5962 0.8026
vn 0.1933 -0.2419 0.9508
vn 0.3474 -0.4360 0.8302
vn -0.9137 -0.2378 0.3295
vn -0.7724 -0.4347 0.4631
vn -0.9504 -0.3071 0.0493
vn -0.7964 -0.5938 0.1152
vn -0.7217 -0.3353 0.6055
vn -0.6567 -0.4945 0.5695
vn -0.7211 -0.6825 -0.1190
vn -0.5321 -0.7887 0.3078
vn -0.5232 -0.7181 0.4589
vn -0.5503 -0.8259 -0.1223
vn -0.3925 -0.8637 0.3163
vn -0.2310 -0.8419 0.4876
vn -0.2459 -0.7069 0.6632
vn -0.5320 -0.5604 0.6347
vn 0.5275 -0.4240 0.7362
vn 0.5335 -0.5888 0.6072
vn 0.2789 -0.8034 0.5261
vn 0.5898 -0.5958 0.5452
vn 0.4311 -0.7990 0.4194
vn 0.4907 -0.8677 0.0795
vn 0.7456 -0.6556 0.1192
vn 0.6394 -0.5865 0.4972
vn 0.8068 -0.5655 -0.1714
vn 0.7004 -0.5528 0.4515
vn 0.8817 -0.3832 0.2754
vn 0.9303 -0.3624 -0.0577
vn -0.9248 -0.2816 -0.2557
vn -0.7451 -0.5041 -0.4366
vn -0.5342 -0.4280 -0.7290
vn -0.5937 -0.5752 -0.5627
vn -0.3598 -0.3990 -0.8434
vn -0.1164 -0.5612 -0.8195
vn 0.1404 -0.6338 -0.7606
vn -0.4538 -0.6881 -0.5663
vn -0.5851 -0.6129 -0.5311
vn 0.1150 -0.8190 -0.5621
vn -0.4758 -0.7742 -0.4173
vn -0.6470 -0.5868 -0.4869
vn 0.7185 -0.3412 -0.6061
vn 0.5294 -0.5376 -0.6563
vn 0.8520 -0.3411 -0.3971
vn 0.5549 -0.6702 -0.4928
vn 0.5373 -0.5696 -0.6220
vn 0.4121 -0.7637 -0.4969
vn 0.5066 -0.5520 -0.6624
vn 0.5055 -0.4763 -0.7195
vn 0.9063 -0.2778 -0.3186
vn -0.2296 -0.3027 -0.9250
vn 0.0402 -0.3157 -0.9480
vn 0.3267 -0.3146 -0.8912
vn -0.3248 -0.9220 0.2108
vn -0.0739 -0.9568 0.2813
vn -0.3373 -0.9413 -0.0160
vn -0.0708 -0.9960 -0.0537
vn 0.1997 -0.9564 0.2132
vn 0.2408 -0.9662 -0.0921
vn -0.3160 -0.8895 -0.3300
vn -0.0707 -0.9443 -0.3215
vn 0.2309 -0.9213 -0.3129
# 154 vertex normals

vt 0.4837 0.8039 1.0167
vt 0.5000 0.8937 1.0045
vt 0.3750 0.8779 0.9958
vt 0.3601 0.8253 0.9898
vt 0.5000 1.0000 1.0000
vt 0.2500 0.8937 1.0045
vt 0.2337 0.8039 1.0167
vt 0.7337 0.8039 1.0167
vt 0.7500 0.8937 1.0045
vt 0.6250 0.8779 0.9958
vt 0.6101 0.8253 0.9898
vt 0.1250 0.8779 0.9958
vt 0.1101 0.8253 0.9898
vt 0.0000 0.8937 1.0045
vt 0.9837 0.8039 1.0167
vt 1.1101 0.8253 0.9898
vt 1.1250 0.8779 0.9958
vt 1.0000 0.8937 1.0045
vt 0.8750 0.8779 0.9958
vt 0.8601 0.8253 0.9898
vt 0.5000 0.5000 1.0000
vt 0.5000 0.6063 1.0045
vt 0.4558 0.5852 0.9958
vt 0.4468 0.5000 1.0045
vt 0.5147 0.7195 1.0223
vt 0.4315 0.6408 0.9663
vt 0.3843 0.5000 1.0192
vt 0.5909 0.5000 1.0107
vt 0.5701 0.6080 0.9898
vt 0.5442 0.5852 0.9958
vt 0.5532 0.5000 1.0045
vt 0.3409 0.5000 1.0107
vt 0.3201 0.6080 0.9898
vt 0.2942 0.5852 0.9958
vt 0.3032 0.5000 1.0045
vt 0.2647 0.7195 1.0223
vt 0.2500 0.6063 1.0045
vt 0.2500 0.5000 1.0000
vt 0.3226 0.7977 1.0079
vt 0.3704 0.7850 0.9685
vt 0.2420 0.7644 1.0236
vt 0.3431 0.5842 1.0079
vt 0.3468 0.6426 0.9550
vt 0.3603 0.5000 1.0511
vt 0.4069 0.7192 0.9450
vt 0.4920 0.7644 1.0236
vt 0.5726 0.7977 1.0079
vt 0.6204 0.7850 0.9685
vt 0.5931 0.5842 1.0079
vt 0.5968 0.6426 0.9550
vt 0.6103 0.5000 1.0511
vt 0.6343 0.5000 1.0192
vt 0.6815 0.6408 0.9663
vt 0.6569 0.7192 0.9450
vt 0.7647 0.7195 1.0223
vt 0.7420 0.7644 1.0236
vt 0.7500 0.5000 1.0000
vt 0.7500 0.6063 1.0045
vt 0.7058 0.5852 0.9958
vt 0.6968 0.5000 1.0045
vt 0.2058 0.5852 0.9958
vt 0.1968 0.5000 1.0045
vt 0.1815 0.6408 0.9663
vt 0.1343 0.5000 1.0192
vt 0.0726 0.7977 1.0079
vt 0.1204 0.7850 0.9685
vt 0.9920 0.7644 1.0236
vt 1.0726 0.7977 1.0079
vt 0.0147 0.7195 1.0223
vt -0.0080 0.7644 1.0236
vt 0.0701 0.6080 0.9898
vt 0.0931 0.5842 1.0079
vt 0.0968 0.6426 0.9550
vt 0.0909 0.5000 1.0107
vt 0.1103 0.5000 1.0511
vt 0.1569 0.7192 0.9450
vt 0.8226 0.7977 1.0079
vt 0.8704 0.7850 0.9685
vt 0.8201 0.6080 0.9898
vt 0.8431 0.5842 1.0079
vt 0.8468 0.6426 0.9550
vt 0.8409 0.5000 1.0107
vt 0.8603 0.5000 1.0511
vt 0.8843 0.5000 1.0192
vt 0.9315 0.6408 0.9663
vt 0.9069 0.7192 0.9450
vt -0.0931 0.7192 0.9450
vt -0.0685 0.6408 0.9663
vt 0.7942 0.5852 0.9958
vt 0.8032 0.5000 1.0045
vt 0.0442 0.5852 0.9958
vt 0.0532 0.5000 1.0045
vt -0.0000 0.6063 1.0045
vt 1.0000 0.5000 1.0000
vt 1.0532 0.5000 1.0045
vt 1.0442 0.5852 0.9958
vt 1.0000 0.6063 1.0045
vt -0.0442 0.5852 0.9958
vt 0.9468 0.5000 1.0045
vt 0.9558 0.5852 0.9958
vt 0.4558 0.4148 0.9958
vt 0.5000 0.3937 1.0045
vt 0.4315 0.3592 0.9663
vt 0.5147 0.2805 1.0223
vt 0.5442 0.4148 0.9958
vt 0.5701 0.3920 0.9898
vt 0.2942 0.4148 0.9958
vt 0.3201 0.3920 0.9898
vt 0.2500 0.3937 1.0045
vt 0.2647 0.2805 1.0223
vt 0.3431 0.4158 1.0079
vt 0.3468 0.3574 0.9550
vt 0.2420 0.2356 1.0236
vt 0.3226 0.2023 1.0079
vt 0.3704 0.2150 0.9685
vt 0.2337 0.1961 1.0167
vt 0.3601 0.1747 0.9898
vt 0.4837 0.1961 1.0167
vt 0.4920 0.2356 1.0236
vt 0.4069 0.2808 0.9450
vt 0.5931 0.4158 1.0079
vt 0.5968 0.3574 0.9550
vt 0.5726 0.2023 1.0079
vt 0.6204 0.2150 0.9685
vt 0.6101 0.1747 0.9898
vt 0.7337 0.1961 1.0167
vt 0.7420 0.2356 1.0236
vt 0.6569 0.2808 0.9450
vt 0.7647 0.2805 1.0223
vt 0.6815 0.3592 0.9663
vt 0.7058 0.4148 0.9958
vt 0.7500 0.3937 1.0045
vt 0.2058 0.4148 0.9958
vt 0.1815 0.3592 0.9663
vt 0.0931 0.4158 1.0079
vt 0.0968 0.3574 0.9550
vt 0.0701 0.3920 0.9898
vt 0.0147 0.2805 1.0223
vt -0.0080 0.2356 1.0236
vt 0.0726 0.2023 1.0079
vt 0.1204 0.2150 0.9685
vt 0.9837 0.1961 1.0167
vt 1.1101 0.1747 0.9898
vt 1.0726 0.2023 1.0079
vt 0.9920 0.2356 1.0236
vt 0.1101 0.1747 0.9898
vt 0.1569 0.2808 0.9450
vt 0.8431 0.4158 1.0079
vt 0.8468 0.3574 0.9550
vt 0.8201 0.3920 0.9898
vt 0.8226 0.2023 1.0079
vt 0.8704 0.2150 0.9685
vt 0.8601 0.1747 0.9898
vt 0.9069 0.2808 0.9450
vt -0.0685 0.3592 0.9663
vt -0.0931 0.2808 0.9450
vt 0.9315 0.3592 0.9663
vt 0.7942 0.4148 0.9958
vt 0.0442 0.4148 0.9958
vt 1.0000 0.3937 1.0045
vt 1.0442 0.4148 0.9958
vt -0.0000 0.3937 1.0045
vt 0.9558 0.4148 0.9958
vt -0.0442 0.4148 0.9958
vt 0.3750 0.1221 0.9958
vt 0.5000 0.1063 1.0045
vt 0.2500 0.1063 1.0045
vt 0.5000 0.0000 1.0000
vt 0.6250 0.1221 0.9958
vt 0.7500 0.1063 1.0045
vt 0.1250 0.1221 0.9958
vt 1.0000 0.1063 1.0045
vt 1.1250 0.1221 0.9958
vt 0.0000 0.1063 1.0045
vt 0.8750 0.1221 0.9958
# 175 texture coords

g BlobMesh005
s 1
f 1/1/1 2/2/2 3/3/3 4/4/4 
f 5/5/5 6/6/6 3/3/3 2/2/2 
f 7/7/7 4/4/4 3/3/3 6/6/6 
f 8/8/8 9/9/9 10/10/10 11/11/11 
f 5/5/5 2/2/2 10/10/10 9/9/9 
f 1/1/1 11/11/11 10/10/10 2/2/2 
f 7/7/7 6/6/6 12/12/12 13/13/13 
f 5/5/5 14/14/14 12/12/12 6/6/6 
f 15/15/15 13/16/13 12/17/12 14/18/14 
f 5/5/5 9/9/9 16/19/16 14/18/14 
f 8/8/8 17/20/17 16/19/16 9/9/9 
f 15/15/15 14/18/14 16/19/16 17/20/17 
f 18/21/18 19/22/19 20/23/20 21/24/21 
f 22/25/22 23/26/23 20/23/20 19/22/19 
f 24/27/24 21/24/21 20/23/20 23/26/23 
f 25/28/25 26/29/26 27/30/27 28/31/28 
f 22/25/22 19/22/19 27/30/27 26/29/26 
f 18/21/18 28/31/28 27/30/27 19/22/19 
f 29/32/29 30/33/30 31/34/31 32/35/32 
f 33/36/33 34/37/34 31/34/31 30/33/30 
f 35/38/35 32/35/32 31/34/31 34/37/34 
f 1/1/1 4/4/4 36/39/36 37/40/37 
f 7/7/7 38/41/38 36/39/36 4/4/4 
f 33/36/33 37/40/37 36/39/36 38/41/38 
f 33/36/33 30/33/30 39/42/39 40/43/40 
f 29/32/29 41/44/41 39/42/39 30/33/30 
f 24/27/24 40/43/40 39/42/39 41/44/41 
f 24/27/24 23/26/23 42/45/42 40/43/40 
f 22/25/22 43/46/43 42/45/42 23/26/23 
f 1/1/1 37/40/37 42/45/42 43/46/43 
f 33/36/33 40/43/40 42/45/42 37/40/37 
f 8/8/8 11/11/11 44/47/44 45/48/45 
f 1/1/1 43/46/43 44/47/44 11/11/11 
f 22/25/22 45/48/45 44/47/44 43/46/43 
f 22/25/22 26/29/26 46/49/46 47/50/47 
f 25/28/25 48/51/48 46/49/46 26/29/26 
f 49/52/49 47/50/47 46/49/46 48/51/48 
f 49/52/49 50/53/50 51/54/51 47/50/47 
f 52/55/52 53/56/53 51/54/51 50/53/50 
f 8/8/8 45/48/45 51/54/51 53/56/53 
f 22/25/22 47/50/47 51/54/51 45/48/45 
f 54/57/54 55/58/55 56/59/56 57/60/57 
f 52/55/52 50/53/50 56/59/56 55/58/55 
f 49/52/49 57/60/57 56/59/56 50/53/50 
f 35/38/35 34/37/34 58/61/58 59/62/59 
f 33/36/33 60/63/60 58/61/58 34/37/34 
f 61/64/61 59/62/59 58/61/58 60/63/60 
f 7/7/7 13/13/13 62/65/62 63/66/63 
f 15/15/15 64/67/64 62/68/62 13/16/13 
f 65/69/65 63/66/63 62/65/62 64/70/64 
f 65/69/65 66/71/66 67/72/67 68/73/68 
f 69/74/69 70/75/70 67/72/67 66/71/66 
f 61/64/61 68/73/68 67/72/67 70/75/70 
f 61/64/61 60/63/60 71/76/71 68/73/68 
f 33/36/33 38/41/38 71/76/71 60/63/60 
f 7/7/7 63/66/63 71/76/71 38/41/38 
f 65/69/65 68/73/68 71/76/71 63/66/63 
f 15/15/15 17/20/17 72/77/72 73/78/73 
f 8/8/8 53/56/53 72/77/72 17/20/17 
f 52/55/52 73/78/73 72/77/72 53/56/53 
f 52/55/52 74/79/74 75/80/75 76/81/76 
f 77/82/77 78/83/78 75/80/75 74/79/74 
f 79/84/79 76/81/76 75/80/75 78/83/78 
f 79/84/79 80/85/80 81/86/81 76/81/76 
f 65/69/65 64/70/64 81/87/81 80/88/80 
f 15/15/15 73/78/73 81/86/81 64/67/64 
f 52/55/52 76/81/76 81/86/81 73/78/73 
f 52/55/52 55/58/55 82/89/82 74/79/74 
f 54/57/54 83/90/83 82/89/82 55/58/55 
f 77/82/77 74/79/74 82/89/82 83/90/83 
f 69/74/69 66/71/66 84/91/84 85/92/85 
f 65/69/65 86/93/86 84/91/84 66/71/66 
f 87/94/87 85/95/85 84/96/84 86/97/86 
f 65/69/65 80/88/80 88/98/88 86/93/86 
f 79/84/79 89/99/89 88/100/88 80/85/80 
f 87/94/87 86/97/86 88/100/88 89/99/89 
f 18/21/18 21/24/21 90/101/90 91/102/91 
f 24/27/24 92/103/92 90/101/90 21/24/21 
f 93/104/93 91/102/91 90/101/90 92/103/92 
f 25/28/25 28/31/28 94/105/94 95/106/95 
f 18/21/18 91/102/91 94/105/94 28/31/28 
f 93/104/93 95/106/95 94/105/94 91/102/91 
f 29/32/29 32/35/32 96/107/96 97/108/97 
f 35/38/35 98/109/98 96/107/96 32/35/32 
f 99/110/99 97/108/97 96/107/96 98/109/98 
f 24/27/24 41/44/41 100/111/100 101/112/101 
f 29/32/29 97/108/97 100/111/100 41/44/41 
f 99/110/99 101/112/101 100/111/100 97/108/97 
f 99/110/99 102/113/102 103/114/103 104/115/104 
f 105/116/105 106/117/106 103/114/103 102/113/102 
f 107/118/107 104/115/104 103/114/103 106/117/106 
f 107/118/107 108/119/108 109/120/109 104/115/104 
f 93/104/93 92/103/92 109/120/109 108/119/108 
f 24/27/24 101/112/101 109/120/109 92/103/92 
f 99/110/99 104/115/104 109/120/109 101/112/101 
f 49/52/49 48/51/48 110/121/110 111/122/111 
f 25/28/25 95/106/95 110/121/110 48/51/48 
f 93/104/93 111/122/111 110/121/110 95/106/95 
f 93/104/93 108/119/108 112/123/112 113/124/113 
f 107/118/107 114/125/114 112/123/112 108/119/108 
f 115/126/115 113/124/113 112/123/112 114/125/114 
f 115/126/115 116/127/116 117/128/117 113/124/113 
f 118/129/118 119/130/119 117/128/117 116/127/116 
f 49/52/49 111/122/111 117/128/117 119/130/119 
f 93/104/93 113/124/113 117/128/117 111/122/111 
f 54/57/54 57/60/57 120/131/120 121/132/121 
f 49/52/49 119/130/119 120/131/120 57/60/57 
f 118/129/118 121/132/121 120/131/120 119/130/119 
f 35/38/35 59/62/59 122/133/122 98/109/98 
f 61/64/61 123/134/123 122/133/122 59/62/59 
f 99/110/99 98/109/98 122/133/122 123/134/123 
f 61/64/61 70/75/70 124/135/124 125/136/125 
f 69/74/69 126/137/126 124/135/124 70/75/70 
f 127/138/127 125/136/125 124/135/124 126/137/126 
f 127/138/127 128/139/128 129/140/129 130/141/130 
f 131/142/131 132/143/132 129/144/129 128/145/128 
f 105/116/105 130/141/130 129/140/129 132/146/132 
f 105/116/105 102/113/102 133/147/133 130/141/130 
f 99/110/99 123/134/123 133/147/133 102/113/102 
f 61/64/61 125/136/125 133/147/133 123/134/123 
f 127/138/127 130/141/130 133/147/133 125/136/125 
f 79/84/79 78/83/78 134/148/134 135/149/135 
f 77/82/77 136/150/136 134/148/134 78/83/78 
f 118/129/118 135/149/135 134/148/134 136/150/136 
f 118/129/118 116/127/116 137/151/137 138/152/138 
f 115/126/115 139/153/139 137/151/137 116/127/116 
f 131/142/131 138/152/138 137/151/137 139/153/139 
f 131/142/131 128/145/128 140/154/140 138/152/138 
f 127/138/127 141/155/141 140/156/140 128/139/128 
f 79/84/79 135/149/135 140/154/140 141/157/141 
f 118/129/118 138/152/138 140/154/140 135/149/135 
f 77/82/77 83/90/83 142/158/142 136/150/136 
f 54/57/54 121/132/121 142/158/142 83/90/83 
f 118/129/118 136/150/136 142/158/142 121/132/121 
f 69/74/69 85/92/85 143/159/143 126/137/126 
f 87/94/87 144/160/144 143/161/143 85/95/85 
f 127/138/127 126/137/126 143/159/143 144/162/144 
f 87/94/87 89/99/89 145/163/145 144/160/144 
f 79/84/79 141/157/141 145/163/145 89/99/89 
f 127/138/127 144/162/144 145/164/145 141/155/141 
f 107/118/107 106/117/106 146/165/146 147/166/147 
f 105/116/105 148/167/148 146/165/146 106/117/106 
f 149/168/149 147/166/147 146/165/146 148/167/148 
f 115/126/115 114/125/114 150/169/150 151/170/151 
f 107/118/107 147/166/147 150/169/150 114/125/114 
f 149/168/149 151/170/151 150/169/150 147/166/147 
f 105/116/105 132/146/132 152/171/152 148/167/148 
f 131/142/131 153/172/153 152/173/152 132/143/132 
f 149/168/149 148/167/148 152/171/152 153/174/153 
f 131/142/131 139/153/139 154/175/154 153/172/153 
f 115/126/115 151/170/151 154/175/154 139/153/139 
f 149/168/149 153/172/153 154/175/154 151/170/151 
# 152 polygons

