# 3ds Max Wavefront OBJ Exporter v0.97b - (c)2007 guruware
# File Created: 22.10.2015 15:56:44

#
# object BlobMesh005
#

v  42.3137 9.6211 -53.7597
v  42.8885 10.5062 -55.5565
v  41.0059 10.4392 -56.2083
v  40.0161 9.8578 -55.6946
v  42.6745 10.8962 -57.8768
v  40.3541 10.6591 -58.0909
v  38.4165 9.7396 -58.3622
v  46.8103 9.4049 -56.9431
v  45.0038 10.3081 -57.6203
v  44.7256 10.2540 -55.7745
v  45.1419 9.5901 -54.6821
v  40.5721 10.5478 -59.9280
v  39.9201 10.1272 -60.8347
v  42.4180 10.5661 -60.2061
v  42.5870 9.8681 -61.8717
v  44.2919 10.1670 -59.4942
v  45.0961 9.6394 -59.7720
v  41.9956 3.6106 -50.2116
v  42.0865 5.9718 -50.6014
v  40.2305 5.6186 -50.9432
v  39.6791 3.7509 -50.6945
v  42.7774 8.2510 -51.9638
v  39.5560 6.7703 -52.0103
v  37.2557 3.8195 -51.8981
v  45.8756 3.1806 -50.9653
v  44.9081 5.5487 -51.1516
v  43.9502 5.1983 -50.5624
v  44.3288 3.2594 -50.3435
v  36.1350 3.8357 -53.3601
v  36.3738 6.0973 -54.4942
v  35.7409 5.5662 -55.4328
v  35.4921 3.7257 -54.8815
v  36.9404 8.3756 -56.9529
v  35.3991 6.0956 -57.2888
v  35.0092 3.7624 -57.1980
v  38.9970 9.5998 -56.0842
v  39.6075 9.2396 -54.9769
v  37.6271 9.1684 -57.9727
v  36.5128 5.6993 -53.5100
v  37.3838 6.7757 -53.9280
v  36.3669 3.8460 -52.4859
v  39.5766 8.1943 -53.4606
v  42.2779 9.1033 -52.9147
v  44.6016 9.2461 -53.7047
v  45.6417 8.8814 -54.2197
v  45.8941 5.0436 -51.3395
v  45.6697 6.1449 -52.1915
v  46.7665 3.2032 -51.1794
v  47.4489 3.2411 -52.0086
v  48.0155 6.3526 -54.5409
v  46.8481 7.7575 -54.3994
v  47.8514 7.9276 -57.7546
v  47.4462 8.7865 -57.0702
v  49.1295 3.0094 -56.4449
v  48.7993 5.4057 -56.7928
v  48.7811 5.1256 -54.8960
v  48.8923 3.2314 -54.1916
v  35.3601 5.7170 -59.1525
v  35.1412 3.8533 -59.5311
v  36.3533 6.8082 -59.9005
v  36.3035 4.0906 -62.0231
v  40.2866 9.9997 -61.7857
v  39.1846 9.5251 -61.0289
v  42.3604 9.5115 -62.5633
v  41.5255 9.0118 -63.2327
v  38.9482 6.9087 -63.4994
v  37.9245 6.3684 -63.1682
v  38.4958 7.3146 -62.5616
v  37.6064 4.5513 -63.3415
v  36.7846 4.3894 -62.9856
v  37.7251 8.2936 -60.4688
v  46.0888 9.3570 -59.2086
v  45.2365 9.0749 -60.2541
v  47.8726 5.9268 -59.7668
v  47.5902 5.6035 -60.7132
v  46.9647 6.7077 -60.6422
v  47.7671 3.7045 -60.5265
v  47.3934 3.8009 -61.4699
v  46.3714 3.8837 -62.2589
v  44.4808 6.8836 -62.7631
v  44.8868 8.0295 -61.5172
v  48.4002 5.1802 -58.6158
v  48.5414 3.3573 -58.8412
v  39.6937 6.4924 -63.9834
v  38.9893 4.6553 -64.0947
v  41.5905 6.7706 -64.0016
v  41.2426 4.4412 -64.3318
v  43.4134 6.0586 -63.6026
v  43.6389 4.1848 -63.7437
v  40.0797 1.8989 -50.8346
v  41.9589 1.3222 -50.5416
v  39.4533 0.9307 -51.7327
v  42.6005 -0.9321 -51.5572
v  43.7994 1.4786 -50.6494
v  44.7818 0.8991 -51.1453
v  35.6323 1.8465 -55.2820
v  36.1677 1.4477 -54.3678
v  35.3392 1.4459 -57.1613
v  36.4759 -0.8075 -56.7760
v  36.3800 1.9796 -53.3775
v  37.1435 0.9361 -53.7842
v  37.0750 -1.5045 -57.5028
v  38.2726 -1.8533 -55.3926
v  39.0025 -1.4334 -54.3796
v  37.7659 -1.9766 -57.6475
v  39.2379 -2.0655 -54.9219
v  41.5989 -2.0951 -53.0729
v  41.8080 -1.5696 -52.3370
v  39.3108 -0.2853 -53.0963
v  45.7615 1.3239 -51.3635
v  45.5259 0.3053 -51.9961
v  43.9100 -2.2070 -53.0244
v  45.0444 -1.7915 -53.5644
v  44.3692 -2.3332 -53.9157
v  46.1234 -2.3113 -56.1997
v  46.8685 -1.8865 -56.4071
v  46.4837 -0.7221 -53.8863
v  47.4448 -1.2555 -57.1932
v  47.7378 0.5130 -54.2652
v  48.6724 1.4059 -54.8414
v  48.7394 0.7560 -56.6669
v  35.4470 1.9972 -59.0017
v  36.2283 0.9686 -59.7977
v  37.8716 2.6487 -63.0353
v  38.2264 1.4750 -62.3213
v  38.8101 2.2590 -63.2934
v  40.9641 -0.1713 -62.7682
v  41.6973 -1.1615 -62.0112
v  39.5571 -1.4534 -61.0613
v  38.5216 -1.1479 -60.4239
v  41.8436 -1.8481 -61.2211
v  39.1323 -1.7961 -60.0566
v  37.2982 -0.1860 -60.2029
v  47.6143 1.8837 -60.6603
v  46.7693 0.8681 -60.3728
v  47.8663 1.2771 -59.6288
v  45.4085 -2.0960 -58.4792
v  44.5811 -1.5981 -59.5911
v  44.3297 -2.2839 -58.9843
v  44.3737 -0.4501 -61.0904
v  44.2050 1.0440 -62.6381
v  48.4872 1.4605 -58.5611
v  39.6391 2.7727 -63.8747
v  41.4646 2.1209 -63.9417
v  43.3588 2.3389 -63.6895
v  40.1321 -2.6010 -55.3345
v  41.9841 -2.8940 -54.7577
v  39.5554 -2.7411 -57.1864
v  41.8438 -3.2240 -57.0462
v  43.8518 -2.7862 -54.9142
v  44.2050 -3.0920 -56.6950
v  39.7118 -2.4923 -59.0542
v  41.4926 -2.8341 -59.4074
v  43.4315 -2.8731 -58.6339
# 154 vertices

vn -0.1003 0.8666 0.4888
vn 0.0321 0.9454 0.3242
vn -0.2468 0.9283 0.2779
vn -0.3734 0.8347 0.4047
vn 0.0749 0.9972 -0.0009
vn -0.2951 0.9531 0.0671
vn -0.5432 0.8385 -0.0432
vn 0.6133 0.7847 0.0901
vn 0.3835 0.9195 -0.0862
vn 0.3047 0.9138 0.2685
vn 0.5348 0.6791 0.5028
vn -0.2027 0.9579 -0.2034
vn -0.4601 0.8324 -0.3089
vn 0.1126 0.9539 -0.2782
vn 0.2906 0.8336 -0.4697
vn 0.3691 0.8899 -0.2680
vn 0.4666 0.7985 -0.3803
vn -0.0740 0.0122 0.9972
vn -0.0699 0.3780 0.9232
vn -0.3255 0.3687 0.8707
vn -0.3405 0.0388 0.9395
vn 0.0711 0.6348 0.7694
vn -0.4771 0.5616 0.6760
vn -0.5417 0.0309 0.8400
vn 0.2980 -0.0228 0.9543
vn 0.3903 0.4247 0.8169
vn 0.2423 0.2978 0.9234
vn 0.2338 -0.0398 0.9715
vn -0.9490 0.0476 0.3117
vn -0.8346 0.4431 0.3273
vn -0.8956 0.3319 0.2964
vn -0.9505 0.0347 0.3088
vn -0.7338 0.6580 0.1690
vn -0.9165 0.3890 0.0933
vn -0.9972 0.0085 0.0741
vn -0.4611 0.8183 0.3431
vn -0.4325 0.7620 0.4820
vn -0.7034 0.7097 -0.0397
vn -0.7037 0.4637 0.5382
vn -0.5323 0.6242 0.5719
vn -0.7664 0.0477 0.6406
vn -0.4552 0.6813 0.5732
vn -0.1417 0.7748 0.6161
vn 0.3696 0.7034 0.6072
vn 0.5405 0.6319 0.5554
vn 0.5350 0.4048 0.7416
vn 0.5583 0.5339 0.6350
vn 0.5832 -0.0253 0.8119
vn 0.7803 -0.0112 0.6253
vn 0.7602 0.4745 0.4439
vn 0.6611 0.5426 0.5182
vn 0.8738 0.4561 -0.1684
vn 0.8346 0.5447 0.0818
vn 0.9982 -0.0253 -0.0539
vn 0.9686 0.2352 -0.0811
vn 0.9155 0.2854 0.2836
vn 0.9253 -0.0209 0.3787
vn -0.9073 0.3541 -0.2267
vn -0.9625 -0.0392 -0.2684
vn -0.7704 0.5229 -0.3647
vn -0.8634 -0.0230 -0.5040
vn -0.3507 0.7855 -0.5098
vn -0.6132 0.6347 -0.4704
vn 0.3296 0.6519 -0.6829
vn -0.0079 0.5749 -0.8182
vn -0.4673 0.4959 -0.7319
vn -0.6748 0.4540 -0.5818
vn -0.6133 0.6182 -0.4917
vn -0.4199 -0.0140 -0.9075
vn -0.7507 0.0317 -0.6599
vn -0.7064 0.5874 -0.3949
vn 0.6131 0.6599 -0.4343
vn 0.6206 0.5065 -0.5985
vn 0.9039 0.2525 -0.3451
vn 0.7879 0.2655 -0.5555
vn 0.6411 0.4815 -0.5976
vn 0.9268 0.0036 -0.3756
vn 0.7603 -0.0069 -0.6495
vn 0.5732 -0.0357 -0.8186
vn 0.5671 0.3700 -0.7359
vn 0.5982 0.4948 -0.6303
vn 0.9444 0.1649 -0.2845
vn 0.9426 0.0145 -0.3336
vn -0.2353 0.2651 -0.9351
vn -0.3330 -0.0077 -0.9429
vn 0.1327 0.2390 -0.9619
vn 0.0552 -0.0142 -0.9984
vn 0.3781 0.2053 -0.9027
vn 0.3704 0.0167 -0.9287
vn -0.3547 -0.3040 0.8842
vn -0.0968 -0.3073 0.9467
vn -0.5280 -0.5164 0.6742
vn -0.0028 -0.5895 0.8077
vn 0.1749 -0.2866 0.9419
vn 0.3470 -0.4639 0.8151
vn -0.9186 -0.2648 0.2934
vn -0.8123 -0.4158 0.4090
vn -0.9474 -0.3197 0.0167
vn -0.7943 -0.5911 0.1402
vn -0.6976 -0.4059 0.5905
vn -0.5260 -0.5906 0.6120
vn -0.7021 -0.7025 -0.1164
vn -0.5409 -0.7302 0.4174
vn -0.5607 -0.5559 0.6137
vn -0.5116 -0.8521 -0.1103
vn -0.3959 -0.8350 0.3821
vn -0.2463 -0.8145 0.5252
vn -0.2942 -0.6514 0.6994
vn -0.5295 -0.5742 0.6245
vn 0.5148 -0.4130 0.7513
vn 0.5013 -0.5756 0.6460
vn 0.2546 -0.8058 0.5347
vn 0.5234 -0.6365 0.5664
vn 0.2938 -0.8988 0.3252
vn 0.4703 -0.8765 0.1027
vn 0.6774 -0.7275 0.1088
vn 0.6291 -0.5910 0.5049
vn 0.7372 -0.6544 -0.1683
vn 0.7131 -0.5232 0.4665
vn 0.8724 -0.3681 0.3216
vn 0.9185 -0.3950 -0.0192
vn -0.9176 -0.3083 -0.2508
vn -0.7878 -0.4552 -0.4149
vn -0.5526 -0.4021 -0.7300
vn -0.5531 -0.5264 -0.6458
vn -0.3952 -0.4124 -0.8208
vn -0.1035 -0.5664 -0.8176
vn 0.1401 -0.6256 -0.7674
vn -0.4010 -0.6886 -0.6042
vn -0.5362 -0.6526 -0.5353
vn 0.1013 -0.8020 -0.5887
vn -0.5441 -0.7009 -0.4612
vn -0.6509 -0.5662 -0.5057
vn 0.7157 -0.3489 -0.6050
vn 0.5000 -0.5669 -0.6547
vn 0.7905 -0.4016 -0.4624
vn 0.4621 -0.7682 -0.4431
vn 0.4791 -0.6442 -0.5962
vn 0.3857 -0.8022 -0.4559
vn 0.4655 -0.6090 -0.6422
vn 0.4803 -0.5089 -0.7143
vn 0.9012 -0.2688 -0.3400
vn -0.2635 -0.2913 -0.9196
vn 0.0203 -0.3299 -0.9438
vn 0.3208 -0.2837 -0.9036
vn -0.3085 -0.9157 0.2575
vn -0.0632 -0.9533 0.2953
vn -0.3166 -0.9483 0.0235
vn -0.0712 -0.9975 -0.0029
vn 0.1623 -0.9487 0.2715
vn 0.2498 -0.9681 -0.0201
vn -0.3018 -0.9061 -0.2966
vn -0.0781 -0.9349 -0.3463
vn 0.2420 -0.9160 -0.3200
# 154 vertex normals

vt 0.4837 0.8039 1.0167
vt 0.5000 0.8937 1.0045
vt 0.3750 0.8779 0.9958
vt 0.3601 0.8253 0.9898
vt 0.5000 1.0000 1.0000
vt 0.2500 0.8937 1.0045
vt 0.2337 0.8039 1.0167
vt 0.7337 0.8039 1.0167
vt 0.7500 0.8937 1.0045
vt 0.6250 0.8779 0.9958
vt 0.6101 0.8253 0.9898
vt 0.1250 0.8779 0.9958
vt 0.1101 0.8253 0.9898
vt 0.0000 0.8937 1.0045
vt 0.9837 0.8039 1.0167
vt 1.1101 0.8253 0.9898
vt 1.1250 0.8779 0.9958
vt 1.0000 0.8937 1.0045
vt 0.8750 0.8779 0.9958
vt 0.8601 0.8253 0.9898
vt 0.5000 0.5000 1.0000
vt 0.5000 0.6063 1.0045
vt 0.4558 0.5852 0.9958
vt 0.4468 0.5000 1.0045
vt 0.5147 0.7195 1.0223
vt 0.4315 0.6408 0.9663
vt 0.3843 0.5000 1.0192
vt 0.5909 0.5000 1.0107
vt 0.5701 0.6080 0.9898
vt 0.5442 0.5852 0.9958
vt 0.5532 0.5000 1.0045
vt 0.3409 0.5000 1.0107
vt 0.3201 0.6080 0.9898
vt 0.2942 0.5852 0.9958
vt 0.3032 0.5000 1.0045
vt 0.2647 0.7195 1.0223
vt 0.2500 0.6063 1.0045
vt 0.2500 0.5000 1.0000
vt 0.3226 0.7977 1.0079
vt 0.3704 0.7850 0.9685
vt 0.2420 0.7644 1.0236
vt 0.3431 0.5842 1.0079
vt 0.3468 0.6426 0.9550
vt 0.3603 0.5000 1.0511
vt 0.4069 0.7192 0.9450
vt 0.4920 0.7644 1.0236
vt 0.5726 0.7977 1.0079
vt 0.6204 0.7850 0.9685
vt 0.5931 0.5842 1.0079
vt 0.5968 0.6426 0.9550
vt 0.6103 0.5000 1.0511
vt 0.6343 0.5000 1.0192
vt 0.6815 0.6408 0.9663
vt 0.6569 0.7192 0.9450
vt 0.7647 0.7195 1.0223
vt 0.7420 0.7644 1.0236
vt 0.7500 0.5000 1.0000
vt 0.7500 0.6063 1.0045
vt 0.7058 0.5852 0.9958
vt 0.6968 0.5000 1.0045
vt 0.2058 0.5852 0.9958
vt 0.1968 0.5000 1.0045
vt 0.1815 0.6408 0.9663
vt 0.1343 0.5000 1.0192
vt 0.0726 0.7977 1.0079
vt 0.1204 0.7850 0.9685
vt 0.9920 0.7644 1.0236
vt 1.0726 0.7977 1.0079
vt 0.0147 0.7195 1.0223
vt -0.0080 0.7644 1.0236
vt 0.0701 0.6080 0.9898
vt 0.0931 0.5842 1.0079
vt 0.0968 0.6426 0.9550
vt 0.0909 0.5000 1.0107
vt 0.1103 0.5000 1.0511
vt 0.1569 0.7192 0.9450
vt 0.8226 0.7977 1.0079
vt 0.8704 0.7850 0.9685
vt 0.8201 0.6080 0.9898
vt 0.8431 0.5842 1.0079
vt 0.8468 0.6426 0.9550
vt 0.8409 0.5000 1.0107
vt 0.8603 0.5000 1.0511
vt 0.8843 0.5000 1.0192
vt 0.9315 0.6408 0.9663
vt 0.9069 0.7192 0.9450
vt -0.0931 0.7192 0.9450
vt -0.0685 0.6408 0.9663
vt 0.7942 0.5852 0.9958
vt 0.8032 0.5000 1.0045
vt 0.0442 0.5852 0.9958
vt 0.0532 0.5000 1.0045
vt -0.0000 0.6063 1.0045
vt 1.0000 0.5000 1.0000
vt 1.0532 0.5000 1.0045
vt 1.0442 0.5852 0.9958
vt 1.0000 0.6063 1.0045
vt -0.0442 0.5852 0.9958
vt 0.9468 0.5000 1.0045
vt 0.9558 0.5852 0.9958
vt 0.4558 0.4148 0.9958
vt 0.5000 0.3937 1.0045
vt 0.4315 0.3592 0.9663
vt 0.5147 0.2805 1.0223
vt 0.5442 0.4148 0.9958
vt 0.5701 0.3920 0.9898
vt 0.2942 0.4148 0.9958
vt 0.3201 0.3920 0.9898
vt 0.2500 0.3937 1.0045
vt 0.2647 0.2805 1.0223
vt 0.3431 0.4158 1.0079
vt 0.3468 0.3574 0.9550
vt 0.2420 0.2356 1.0236
vt 0.3226 0.2023 1.0079
vt 0.3704 0.2150 0.9685
vt 0.2337 0.1961 1.0167
vt 0.3601 0.1747 0.9898
vt 0.4837 0.1961 1.0167
vt 0.4920 0.2356 1.0236
vt 0.4069 0.2808 0.9450
vt 0.5931 0.4158 1.0079
vt 0.5968 0.3574 0.9550
vt 0.5726 0.2023 1.0079
vt 0.6204 0.2150 0.9685
vt 0.6101 0.1747 0.9898
vt 0.7337 0.1961 1.0167
vt 0.7420 0.2356 1.0236
vt 0.6569 0.2808 0.9450
vt 0.7647 0.2805 1.0223
vt 0.6815 0.3592 0.9663
vt 0.7058 0.4148 0.9958
vt 0.7500 0.3937 1.0045
vt 0.2058 0.4148 0.9958
vt 0.1815 0.3592 0.9663
vt 0.0931 0.4158 1.0079
vt 0.0968 0.3574 0.9550
vt 0.0701 0.3920 0.9898
vt 0.0147 0.2805 1.0223
vt -0.0080 0.2356 1.0236
vt 0.0726 0.2023 1.0079
vt 0.1204 0.2150 0.9685
vt 0.9837 0.1961 1.0167
vt 1.1101 0.1747 0.9898
vt 1.0726 0.2023 1.0079
vt 0.9920 0.2356 1.0236
vt 0.1101 0.1747 0.9898
vt 0.1569 0.2808 0.9450
vt 0.8431 0.4158 1.0079
vt 0.8468 0.3574 0.9550
vt 0.8201 0.3920 0.9898
vt 0.8226 0.2023 1.0079
vt 0.8704 0.2150 0.9685
vt 0.8601 0.1747 0.9898
vt 0.9069 0.2808 0.9450
vt -0.0685 0.3592 0.9663
vt -0.0931 0.2808 0.9450
vt 0.9315 0.3592 0.9663
vt 0.7942 0.4148 0.9958
vt 0.0442 0.4148 0.9958
vt 1.0000 0.3937 1.0045
vt 1.0442 0.4148 0.9958
vt -0.0000 0.3937 1.0045
vt 0.9558 0.4148 0.9958
vt -0.0442 0.4148 0.9958
vt 0.3750 0.1221 0.9958
vt 0.5000 0.1063 1.0045
vt 0.2500 0.1063 1.0045
vt 0.5000 0.0000 1.0000
vt 0.6250 0.1221 0.9958
vt 0.7500 0.1063 1.0045
vt 0.1250 0.1221 0.9958
vt 1.0000 0.1063 1.0045
vt 1.1250 0.1221 0.9958
vt 0.0000 0.1063 1.0045
vt 0.8750 0.1221 0.9958
# 175 texture coords

g BlobMesh005
s 1
f 1/1/1 2/2/2 3/3/3 4/4/4 
f 5/5/5 6/6/6 3/3/3 2/2/2 
f 7/7/7 4/4/4 3/3/3 6/6/6 
f 8/8/8 9/9/9 10/10/10 11/11/11 
f 5/5/5 2/2/2 10/10/10 9/9/9 
f 1/1/1 11/11/11 10/10/10 2/2/2 
f 7/7/7 6/6/6 12/12/12 13/13/13 
f 5/5/5 14/14/14 12/12/12 6/6/6 
f 15/15/15 13/16/13 12/17/12 14/18/14 
f 5/5/5 9/9/9 16/19/16 14/18/14 
f 8/8/8 17/20/17 16/19/16 9/9/9 
f 15/15/15 14/18/14 16/19/16 17/20/17 
f 18/21/18 19/22/19 20/23/20 21/24/21 
f 22/25/22 23/26/23 20/23/20 19/22/19 
f 24/27/24 21/24/21 20/23/20 23/26/23 
f 25/28/25 26/29/26 27/30/27 28/31/28 
f 22/25/22 19/22/19 27/30/27 26/29/26 
f 18/21/18 28/31/28 27/30/27 19/22/19 
f 29/32/29 30/33/30 31/34/31 32/35/32 
f 33/36/33 34/37/34 31/34/31 30/33/30 
f 35/38/35 32/35/32 31/34/31 34/37/34 
f 1/1/1 4/4/4 36/39/36 37/40/37 
f 7/7/7 38/41/38 36/39/36 4/4/4 
f 33/36/33 37/40/37 36/39/36 38/41/38 
f 33/36/33 30/33/30 39/42/39 40/43/40 
f 29/32/29 41/44/41 39/42/39 30/33/30 
f 24/27/24 40/43/40 39/42/39 41/44/41 
f 24/27/24 23/26/23 42/45/42 40/43/40 
f 22/25/22 43/46/43 42/45/42 23/26/23 
f 1/1/1 37/40/37 42/45/42 43/46/43 
f 33/36/33 40/43/40 42/45/42 37/40/37 
f 8/8/8 11/11/11 44/47/44 45/48/45 
f 1/1/1 43/46/43 44/47/44 11/11/11 
f 22/25/22 45/48/45 44/47/44 43/46/43 
f 22/25/22 26/29/26 46/49/46 47/50/47 
f 25/28/25 48/51/48 46/49/46 26/29/26 
f 49/52/49 47/50/47 46/49/46 48/51/48 
f 49/52/49 50/53/50 51/54/51 47/50/47 
f 52/55/52 53/56/53 51/54/51 50/53/50 
f 8/8/8 45/48/45 51/54/51 53/56/53 
f 22/25/22 47/50/47 51/54/51 45/48/45 
f 54/57/54 55/58/55 56/59/56 57/60/57 
f 52/55/52 50/53/50 56/59/56 55/58/55 
f 49/52/49 57/60/57 56/59/56 50/53/50 
f 35/38/35 34/37/34 58/61/58 59/62/59 
f 33/36/33 60/63/60 58/61/58 34/37/34 
f 61/64/61 59/62/59 58/61/58 60/63/60 
f 7/7/7 13/13/13 62/65/62 63/66/63 
f 15/15/15 64/67/64 62/68/62 13/16/13 
f 65/69/65 63/66/63 62/65/62 64/70/64 
f 65/69/65 66/71/66 67/72/67 68/73/68 
f 69/74/69 70/75/70 67/72/67 66/71/66 
f 61/64/61 68/73/68 67/72/67 70/75/70 
f 61/64/61 60/63/60 71/76/71 68/73/68 
f 33/36/33 38/41/38 71/76/71 60/63/60 
f 7/7/7 63/66/63 71/76/71 38/41/38 
f 65/69/65 68/73/68 71/76/71 63/66/63 
f 15/15/15 17/20/17 72/77/72 73/78/73 
f 8/8/8 53/56/53 72/77/72 17/20/17 
f 52/55/52 73/78/73 72/77/72 53/56/53 
f 52/55/52 74/79/74 75/80/75 76/81/76 
f 77/82/77 78/83/78 75/80/75 74/79/74 
f 79/84/79 76/81/76 75/80/75 78/83/78 
f 79/84/79 80/85/80 81/86/81 76/81/76 
f 65/69/65 64/70/64 81/87/81 80/88/80 
f 15/15/15 73/78/73 81/86/81 64/67/64 
f 52/55/52 76/81/76 81/86/81 73/78/73 
f 52/55/52 55/58/55 82/89/82 74/79/74 
f 54/57/54 83/90/83 82/89/82 55/58/55 
f 77/82/77 74/79/74 82/89/82 83/90/83 
f 69/74/69 66/71/66 84/91/84 85/92/85 
f 65/69/65 86/93/86 84/91/84 66/71/66 
f 87/94/87 85/95/85 84/96/84 86/97/86 
f 65/69/65 80/88/80 88/98/88 86/93/86 
f 79/84/79 89/99/89 88/100/88 80/85/80 
f 87/94/87 86/97/86 88/100/88 89/99/89 
f 18/21/18 21/24/21 90/101/90 91/102/91 
f 24/27/24 92/103/92 90/101/90 21/24/21 
f 93/104/93 91/102/91 90/101/90 92/103/92 
f 25/28/25 28/31/28 94/105/94 95/106/95 
f 18/21/18 91/102/91 94/105/94 28/31/28 
f 93/104/93 95/106/95 94/105/94 91/102/91 
f 29/32/29 32/35/32 96/107/96 97/108/97 
f 35/38/35 98/109/98 96/107/96 32/35/32 
f 99/110/99 97/108/97 96/107/96 98/109/98 
f 24/27/24 41/44/41 100/111/100 101/112/101 
f 29/32/29 97/108/97 100/111/100 41/44/41 
f 99/110/99 101/112/101 100/111/100 97/108/97 
f 99/110/99 102/113/102 103/114/103 104/115/104 
f 105/116/105 106/117/106 103/114/103 102/113/102 
f 107/118/107 104/115/104 103/114/103 106/117/106 
f 107/118/107 108/119/108 109/120/109 104/115/104 
f 93/104/93 92/103/92 109/120/109 108/119/108 
f 24/27/24 101/112/101 109/120/109 92/103/92 
f 99/110/99 104/115/104 109/120/109 101/112/101 
f 49/52/49 48/51/48 110/121/110 111/122/111 
f 25/28/25 95/106/95 110/121/110 48/51/48 
f 93/104/93 111/122/111 110/121/110 95/106/95 
f 93/104/93 108/119/108 112/123/112 113/124/113 
f 107/118/107 114/125/114 112/123/112 108/119/108 
f 115/126/115 113/124/113 112/123/112 114/125/114 
f 115/126/115 116/127/116 117/128/117 113/124/113 
f 118/129/118 119/130/119 117/128/117 116/127/116 
f 49/52/49 111/122/111 117/128/117 119/130/119 
f 93/104/93 113/124/113 117/128/117 111/122/111 
f 54/57/54 57/60/57 120/131/120 121/132/121 
f 49/52/49 119/130/119 120/131/120 57/60/57 
f 118/129/118 121/132/121 120/131/120 119/130/119 
f 35/38/35 59/62/59 122/133/122 98/109/98 
f 61/64/61 123/134/123 122/133/122 59/62/59 
f 99/110/99 98/109/98 122/133/122 123/134/123 
f 61/64/61 70/75/70 124/135/124 125/136/125 
f 69/74/69 126/137/126 124/135/124 70/75/70 
f 127/138/127 125/136/125 124/135/124 126/137/126 
f 127/138/127 128/139/128 129/140/129 130/141/130 
f 131/142/131 132/143/132 129/144/129 128/145/128 
f 105/116/105 130/141/130 129/140/129 132/146/132 
f 105/116/105 102/113/102 133/147/133 130/141/130 
f 99/110/99 123/134/123 133/147/133 102/113/102 
f 61/64/61 125/136/125 133/147/133 123/134/123 
f 127/138/127 130/141/130 133/147/133 125/136/125 
f 79/84/79 78/83/78 134/148/134 135/149/135 
f 77/82/77 136/150/136 134/148/134 78/83/78 
f 118/129/118 135/149/135 134/148/134 136/150/136 
f 118/129/118 116/127/116 137/151/137 138/152/138 
f 115/126/115 139/153/139 137/151/137 116/127/116 
f 131/142/131 138/152/138 137/151/137 139/153/139 
f 131/142/131 128/145/128 140/154/140 138/152/138 
f 127/138/127 141/155/141 140/156/140 128/139/128 
f 79/84/79 135/149/135 140/154/140 141/157/141 
f 118/129/118 138/152/138 140/154/140 135/149/135 
f 77/82/77 83/90/83 142/158/142 136/150/136 
f 54/57/54 121/132/121 142/158/142 83/90/83 
f 118/129/118 136/150/136 142/158/142 121/132/121 
f 69/74/69 85/92/85 143/159/143 126/137/126 
f 87/94/87 144/160/144 143/161/143 85/95/85 
f 127/138/127 126/137/126 143/159/143 144/162/144 
f 87/94/87 89/99/89 145/163/145 144/160/144 
f 79/84/79 141/157/141 145/163/145 89/99/89 
f 127/138/127 144/162/144 145/164/145 141/155/141 
f 107/118/107 106/117/106 146/165/146 147/166/147 
f 105/116/105 148/167/148 146/165/146 106/117/106 
f 149/168/149 147/166/147 146/165/146 148/167/148 
f 115/126/115 114/125/114 150/169/150 151/170/151 
f 107/118/107 147/166/147 150/169/150 114/125/114 
f 149/168/149 151/170/151 150/169/150 147/166/147 
f 105/116/105 132/146/132 152/171/152 148/167/148 
f 131/142/131 153/172/153 152/173/152 132/143/132 
f 149/168/149 148/167/148 152/171/152 153/174/153 
f 131/142/131 139/153/139 154/175/154 153/172/153 
f 115/126/115 151/170/151 154/175/154 139/153/139 
f 149/168/149 153/172/153 154/175/154 151/170/151 
# 152 polygons

