# 3ds Max Wavefront OBJ Exporter v0.97b - (c)2007 guruware
# File Created: 22.10.2015 11:00:32

#
# object BlobMesh005
#

v  41.8957 9.0009 -52.9422
v  42.2546 9.9078 -54.7756
v  40.3206 9.6853 -55.5229
v  39.3512 8.9914 -55.0959
v  41.9294 10.2866 -57.1317
v  39.5732 9.7785 -57.4570
v  37.6134 8.6060 -57.9443
v  45.9927 9.0185 -56.1264
v  44.2229 9.9828 -56.8130
v  44.0403 9.7845 -54.9849
v  44.5432 9.2010 -53.9624
v  39.7826 9.6731 -59.2427
v  39.1992 9.1614 -60.1698
v  41.6106 10.1011 -59.4252
v  41.7703 9.2709 -61.0686
v  43.5023 9.8678 -58.7046
v  44.3764 9.2537 -59.0512
v  40.8695 2.7749 -49.6019
v  41.3143 5.1614 -50.1365
v  39.3716 4.6112 -50.0686
v  38.5849 2.7221 -49.8139
v  42.4620 7.6008 -51.3089
v  38.9162 5.7741 -51.0404
v  36.1947 2.7170 -50.8084
v  44.8188 2.6626 -50.6075
v  44.1442 5.1837 -50.7660
v  43.0913 4.7931 -50.2633
v  43.2345 2.8705 -50.0182
v  35.0204 2.5959 -52.3033
v  35.3120 4.9698 -53.7303
v  34.8662 4.4324 -54.5739
v  34.6115 2.5130 -53.7872
v  36.1653 7.3273 -56.6375
v  34.9341 5.0013 -56.5166
v  34.3996 2.6362 -56.0718
v  38.2638 8.6646 -55.6225
v  39.0168 8.2745 -54.4148
v  36.8484 8.0836 -57.6456
v  35.3482 4.5113 -52.6275
v  36.4178 5.6860 -53.1964
v  35.2750 2.5918 -51.4315
v  39.0566 7.1225 -52.7468
v  41.9507 8.4121 -52.1060
v  44.1399 8.8558 -52.9994
v  45.0796 8.5479 -53.5621
v  45.0115 4.5763 -50.9182
v  44.9381 5.8067 -51.6694
v  45.7122 2.5410 -50.8086
v  46.3592 2.6548 -51.6790
v  47.0456 5.8104 -53.8711
v  46.1342 7.3513 -53.7078
v  47.1965 7.5881 -57.0170
v  46.6375 8.4146 -56.2534
v  48.5198 2.7726 -56.2082
v  48.3343 5.1730 -56.1965
v  47.9064 4.6379 -54.3708
v  48.0117 2.7226 -53.9589
v  35.0609 4.8581 -58.2936
v  34.8158 3.0810 -58.4368
v  35.9182 6.0756 -59.2607
v  35.9343 3.7837 -60.9622
v  39.5288 9.1491 -61.0525
v  38.5181 8.5882 -60.4382
v  41.5436 8.7857 -61.7846
v  40.7879 8.1913 -62.4576
v  38.3400 6.3100 -62.4376
v  37.3923 5.9067 -62.0036
v  37.8593 6.7858 -61.5957
v  37.3324 4.0969 -62.2268
v  36.4845 4.0489 -61.8936
v  37.1442 7.3983 -59.9487
v  45.3834 8.9357 -58.4509
v  44.5788 8.5828 -59.5876
v  47.4870 5.2605 -59.1587
v  47.1689 4.8951 -60.1810
v  46.4426 6.0231 -60.0056
v  47.4093 3.0067 -60.2526
v  47.0225 3.0603 -61.1698
v  46.0418 3.0663 -61.8898
v  43.8110 6.2080 -62.3280
v  44.1953 7.4456 -60.9363
v  48.1011 4.6550 -58.0906
v  48.2160 2.7609 -58.6085
v  39.1685 5.8071 -63.1087
v  38.7565 4.0214 -63.2140
v  40.9941 5.9897 -63.5366
v  41.0058 3.6961 -63.7222
v  42.8882 5.2691 -63.3034
v  43.4062 3.3774 -63.4183
v  38.9459 0.8915 -50.0807
v  40.7462 0.5118 -49.9432
v  38.3694 -0.0655 -50.8322
v  41.3822 -1.5823 -50.9748
v  42.6656 1.0734 -50.1799
v  43.7044 0.5341 -50.7629
v  34.8783 0.7127 -54.1482
v  35.3014 0.3202 -53.2904
v  34.7409 0.3516 -55.9485
v  35.7851 -1.8558 -55.5577
v  35.4448 0.7916 -52.3598
v  36.1520 -0.1536 -52.7590
v  36.3915 -2.5893 -56.3873
v  37.3072 -2.7884 -54.3935
v  37.9813 -2.3985 -53.3537
v  37.0820 -3.1102 -56.6427
v  38.2506 -2.9319 -53.9347
v  40.5941 -2.7153 -52.2532
v  40.6925 -2.2608 -51.5911
v  38.1813 -1.3571 -52.0244
v  44.7439 0.8566 -50.9597
v  44.5007 -0.0330 -51.6589
v  42.9109 -2.5972 -52.6301
v  44.0185 -2.1250 -53.2324
v  43.3820 -2.7223 -53.5572
v  45.3038 -2.6976 -55.6436
v  46.1226 -2.2583 -55.7876
v  45.4118 -1.1283 -53.5048
v  46.8624 -1.5950 -56.6256
v  46.8374 -0.0292 -53.7285
v  47.9185 0.9182 -54.3537
v  48.1410 0.5233 -56.1581
v  34.9776 1.1383 -57.8679
v  35.8631 0.2360 -58.7139
v  37.3599 2.1870 -62.1002
v  37.7377 0.9462 -61.3298
v  38.2689 1.6604 -62.4270
v  40.3965 -0.9918 -62.0774
v  41.0778 -1.8872 -61.3276
v  39.0898 -2.3039 -60.0960
v  38.1819 -2.0847 -59.4027
v  41.2875 -2.4452 -60.5372
v  38.7673 -2.7619 -59.0692
v  36.9989 -1.0813 -59.0734
v  47.2104 1.1754 -60.1486
v  46.4320 0.1834 -59.8841
v  47.4839 0.6109 -59.0876
v  45.0142 -2.5174 -58.0119
v  44.2491 -2.0902 -59.2514
v  43.9711 -2.6696 -58.6193
v  43.9922 -1.0340 -60.7911
v  43.6683 0.3684 -62.2730
v  48.0177 0.9353 -58.0734
v  39.1514 2.0874 -63.1208
v  40.9558 1.3400 -63.3434
v  42.8711 1.5493 -63.2200
v  39.1247 -3.3549 -54.3271
v  40.9553 -3.4924 -53.9474
v  38.7450 -3.6217 -56.1576
v  41.0081 -3.8336 -56.2104
v  42.8445 -3.2557 -54.5089
v  43.3947 -3.4174 -56.3061
v  39.3066 -3.3670 -58.0468
v  41.1037 -3.2991 -58.5970
v  43.0263 -3.1723 -58.2286
# 154 vertices

vn -0.1768 0.8394 0.5139
vn -0.0458 0.9472 0.3174
vn -0.3442 0.8969 0.2777
vn -0.4630 0.7904 0.4011
vn -0.0390 0.9988 0.0285
vn -0.3967 0.9158 0.0620
vn -0.5674 0.8205 -0.0694
vn 0.6131 0.7844 0.0939
vn 0.3478 0.9362 -0.0515
vn 0.2546 0.9293 0.2675
vn 0.4959 0.7442 0.4475
vn -0.3267 0.9211 -0.2118
vn -0.4274 0.8745 -0.2292
vn -0.0244 0.9582 -0.2852
vn 0.1949 0.8241 -0.5318
vn 0.3258 0.9043 -0.2759
vn 0.5225 0.6821 -0.5116
vn 0.0348 0.0155 0.9993
vn 0.0165 0.3415 0.9397
vn -0.2376 0.3746 0.8962
vn -0.2633 0.0237 0.9644
vn 0.0849 0.5790 0.8109
vn -0.4574 0.6191 0.6384
vn -0.5231 0.0616 0.8500
vn 0.2780 -0.0324 0.9600
vn 0.3891 0.3567 0.8493
vn 0.2411 0.2528 0.9370
vn 0.2691 -0.0055 0.9631
vn -0.9624 0.0020 0.2716
vn -0.8478 0.4727 0.2403
vn -0.9336 0.3242 0.1524
vn -0.9812 0.0062 0.1929
vn -0.7588 0.6408 0.1164
vn -0.9339 0.3573 -0.0105
vn -0.9993 0.0127 -0.0360
vn -0.5058 0.7965 0.3314
vn -0.5100 0.6938 0.5085
vn -0.7108 0.6981 -0.0866
vn -0.7297 0.4929 0.4740
vn -0.4923 0.6924 0.5274
vn -0.7633 -0.0125 0.6459
vn -0.4712 0.7006 0.5359
vn -0.1940 0.7120 0.6749
vn 0.3693 0.6928 0.6194
vn 0.5778 0.6160 0.5354
vn 0.5453 0.3008 0.7824
vn 0.5808 0.4382 0.6860
vn 0.5977 -0.0969 0.7958
vn 0.7744 -0.0588 0.6299
vn 0.7709 0.3886 0.5046
vn 0.7107 0.4655 0.5275
vn 0.8426 0.5239 -0.1243
vn 0.7915 0.6000 0.1161
vn 0.9987 -0.0272 0.0431
vn 0.9516 0.2950 0.0862
vn 0.8706 0.2658 0.4139
vn 0.9021 0.0018 0.4316
vn -0.9262 0.3021 -0.2254
vn -0.9516 -0.0182 -0.3067
vn -0.8186 0.4557 -0.3495
vn -0.8674 0.0013 -0.4976
vn -0.3890 0.7858 -0.4808
vn -0.6313 0.6085 -0.4808
vn 0.2521 0.6614 -0.7064
vn -0.0544 0.5945 -0.8023
vn -0.5128 0.4627 -0.7232
vn -0.6989 0.4121 -0.5845
vn -0.6021 0.5897 -0.5383
vn -0.4523 0.0261 -0.8915
vn -0.7106 0.0651 -0.7006
vn -0.7148 0.5682 -0.4076
vn 0.6043 0.6854 -0.4063
vn 0.5804 0.5683 -0.5833
vn 0.8596 0.3401 -0.3814
vn 0.7525 0.3435 -0.5619
vn 0.6181 0.5184 -0.5909
vn 0.9180 0.0020 -0.3967
vn 0.7404 0.0052 -0.6721
vn 0.5775 -0.0301 -0.8158
vn 0.5373 0.4545 -0.7105
vn 0.5603 0.5335 -0.6336
vn 0.9389 0.2191 -0.2654
vn 0.9490 -0.0367 -0.3132
vn -0.3688 0.2632 -0.8915
vn -0.4202 0.0107 -0.9073
vn -0.0009 0.2862 -0.9582
vn -0.0449 -0.0231 -0.9987
vn 0.3398 0.2700 -0.9009
vn 0.3449 -0.0181 -0.9385
vn -0.2599 -0.3247 0.9094
vn 0.0102 -0.3179 0.9481
vn -0.4241 -0.5089 0.7491
vn 0.1112 -0.5818 0.8057
vn 0.2571 -0.2646 0.9295
vn 0.3025 -0.3416 0.8898
vn -0.9368 -0.2858 0.2017
vn -0.8331 -0.4371 0.3389
vn -0.9447 -0.3205 -0.0690
vn -0.8101 -0.5800 0.0853
vn -0.6751 -0.4624 0.5748
vn -0.5476 -0.6006 0.5826
vn -0.7503 -0.6403 -0.1642
vn -0.5185 -0.7508 0.4092
vn -0.4785 -0.6820 0.5530
vn -0.5017 -0.8492 -0.1647
vn -0.3562 -0.8091 0.4675
vn -0.0925 -0.8538 0.5122
vn -0.1320 -0.7007 0.7012
vn -0.4589 -0.6143 0.6419
vn 0.5201 -0.4333 0.7360
vn 0.5525 -0.5802 0.5984
vn 0.3588 -0.7706 0.5267
vn 0.5443 -0.6058 0.5804
vn 0.2687 -0.9133 0.3062
vn 0.4490 -0.8766 0.1735
vn 0.6612 -0.7161 0.2237
vn 0.5743 -0.6005 0.5564
vn 0.7398 -0.6691 -0.0709
vn 0.6311 -0.5466 0.5504
vn 0.8572 -0.3406 0.3863
vn 0.9283 -0.3696 0.0416
vn -0.8940 -0.2954 -0.3370
vn -0.7548 -0.4320 -0.4936
vn -0.6277 -0.3278 -0.7061
vn -0.6464 -0.4874 -0.5870
vn -0.5101 -0.3682 -0.7773
vn -0.1814 -0.5816 -0.7930
vn 0.0762 -0.7011 -0.7090
vn -0.4104 -0.6948 -0.5906
vn -0.5843 -0.5864 -0.5611
vn 0.0913 -0.8448 -0.5273
vn -0.3606 -0.8156 -0.4526
vn -0.6762 -0.5047 -0.5367
vn 0.7214 -0.3903 -0.5720
vn 0.5522 -0.6003 -0.5786
vn 0.7565 -0.4880 -0.4354
vn 0.4792 -0.7976 -0.3664
vn 0.4602 -0.7176 -0.5227
vn 0.4322 -0.7313 -0.5276
vn 0.4412 -0.6399 -0.6292
vn 0.4207 -0.5191 -0.7440
vn 0.9163 -0.3151 -0.2471
vn -0.3757 -0.2468 -0.8933
vn -0.0602 -0.3335 -0.9408
vn 0.2585 -0.3275 -0.9088
vn -0.2137 -0.9369 0.2765
vn 0.0520 -0.9493 0.3100
vn -0.2124 -0.9770 0.0204
vn 0.0366 -0.9992 -0.0175
vn 0.2385 -0.9338 0.2666
vn 0.2808 -0.9594 -0.0278
vn -0.1693 -0.9378 -0.3030
vn 0.0253 -0.9457 -0.3240
vn 0.2496 -0.9234 -0.2915
# 154 vertex normals

vt 0.4837 0.8039 1.0167
vt 0.5000 0.8937 1.0045
vt 0.3750 0.8779 0.9958
vt 0.3601 0.8253 0.9898
vt 0.5000 1.0000 1.0000
vt 0.2500 0.8937 1.0045
vt 0.2337 0.8039 1.0167
vt 0.7337 0.8039 1.0167
vt 0.7500 0.8937 1.0045
vt 0.6250 0.8779 0.9958
vt 0.6101 0.8253 0.9898
vt 0.1250 0.8779 0.9958
vt 0.1101 0.8253 0.9898
vt 0.0000 0.8937 1.0045
vt 0.9837 0.8039 1.0167
vt 1.1101 0.8253 0.9898
vt 1.1250 0.8779 0.9958
vt 1.0000 0.8937 1.0045
vt 0.8750 0.8779 0.9958
vt 0.8601 0.8253 0.9898
vt 0.5000 0.5000 1.0000
vt 0.5000 0.6063 1.0045
vt 0.4558 0.5852 0.9958
vt 0.4468 0.5000 1.0045
vt 0.5147 0.7195 1.0223
vt 0.4315 0.6408 0.9663
vt 0.3843 0.5000 1.0192
vt 0.5909 0.5000 1.0107
vt 0.5701 0.6080 0.9898
vt 0.5442 0.5852 0.9958
vt 0.5532 0.5000 1.0045
vt 0.3409 0.5000 1.0107
vt 0.3201 0.6080 0.9898
vt 0.2942 0.5852 0.9958
vt 0.3032 0.5000 1.0045
vt 0.2647 0.7195 1.0223
vt 0.2500 0.6063 1.0045
vt 0.2500 0.5000 1.0000
vt 0.3226 0.7977 1.0079
vt 0.3704 0.7850 0.9685
vt 0.2420 0.7644 1.0236
vt 0.3431 0.5842 1.0079
vt 0.3468 0.6426 0.9550
vt 0.3603 0.5000 1.0511
vt 0.4069 0.7192 0.9450
vt 0.4920 0.7644 1.0236
vt 0.5726 0.7977 1.0079
vt 0.6204 0.7850 0.9685
vt 0.5931 0.5842 1.0079
vt 0.5968 0.6426 0.9550
vt 0.6103 0.5000 1.0511
vt 0.6343 0.5000 1.0192
vt 0.6815 0.6408 0.9663
vt 0.6569 0.7192 0.9450
vt 0.7647 0.7195 1.0223
vt 0.7420 0.7644 1.0236
vt 0.7500 0.5000 1.0000
vt 0.7500 0.6063 1.0045
vt 0.7058 0.5852 0.9958
vt 0.6968 0.5000 1.0045
vt 0.2058 0.5852 0.9958
vt 0.1968 0.5000 1.0045
vt 0.1815 0.6408 0.9663
vt 0.1343 0.5000 1.0192
vt 0.0726 0.7977 1.0079
vt 0.1204 0.7850 0.9685
vt 0.9920 0.7644 1.0236
vt 1.0726 0.7977 1.0079
vt 0.0147 0.7195 1.0223
vt -0.0080 0.7644 1.0236
vt 0.0701 0.6080 0.9898
vt 0.0931 0.5842 1.0079
vt 0.0968 0.6426 0.9550
vt 0.0909 0.5000 1.0107
vt 0.1103 0.5000 1.0511
vt 0.1569 0.7192 0.9450
vt 0.8226 0.7977 1.0079
vt 0.8704 0.7850 0.9685
vt 0.8201 0.6080 0.9898
vt 0.8431 0.5842 1.0079
vt 0.8468 0.6426 0.9550
vt 0.8409 0.5000 1.0107
vt 0.8603 0.5000 1.0511
vt 0.8843 0.5000 1.0192
vt 0.9315 0.6408 0.9663
vt 0.9069 0.7192 0.9450
vt -0.0931 0.7192 0.9450
vt -0.0685 0.6408 0.9663
vt 0.7942 0.5852 0.9958
vt 0.8032 0.5000 1.0045
vt 0.0442 0.5852 0.9958
vt 0.0532 0.5000 1.0045
vt -0.0000 0.6063 1.0045
vt 1.0000 0.5000 1.0000
vt 1.0532 0.5000 1.0045
vt 1.0442 0.5852 0.9958
vt 1.0000 0.6063 1.0045
vt -0.0442 0.5852 0.9958
vt 0.9468 0.5000 1.0045
vt 0.9558 0.5852 0.9958
vt 0.4558 0.4148 0.9958
vt 0.5000 0.3937 1.0045
vt 0.4315 0.3592 0.9663
vt 0.5147 0.2805 1.0223
vt 0.5442 0.4148 0.9958
vt 0.5701 0.3920 0.9898
vt 0.2942 0.4148 0.9958
vt 0.3201 0.3920 0.9898
vt 0.2500 0.3937 1.0045
vt 0.2647 0.2805 1.0223
vt 0.3431 0.4158 1.0079
vt 0.3468 0.3574 0.9550
vt 0.2420 0.2356 1.0236
vt 0.3226 0.2023 1.0079
vt 0.3704 0.2150 0.9685
vt 0.2337 0.1961 1.0167
vt 0.3601 0.1747 0.9898
vt 0.4837 0.1961 1.0167
vt 0.4920 0.2356 1.0236
vt 0.4069 0.2808 0.9450
vt 0.5931 0.4158 1.0079
vt 0.5968 0.3574 0.9550
vt 0.5726 0.2023 1.0079
vt 0.6204 0.2150 0.9685
vt 0.6101 0.1747 0.9898
vt 0.7337 0.1961 1.0167
vt 0.7420 0.2356 1.0236
vt 0.6569 0.2808 0.9450
vt 0.7647 0.2805 1.0223
vt 0.6815 0.3592 0.9663
vt 0.7058 0.4148 0.9958
vt 0.7500 0.3937 1.0045
vt 0.2058 0.4148 0.9958
vt 0.1815 0.3592 0.9663
vt 0.0931 0.4158 1.0079
vt 0.0968 0.3574 0.9550
vt 0.0701 0.3920 0.9898
vt 0.0147 0.2805 1.0223
vt -0.0080 0.2356 1.0236
vt 0.0726 0.2023 1.0079
vt 0.1204 0.2150 0.9685
vt 0.9837 0.1961 1.0167
vt 1.1101 0.1747 0.9898
vt 1.0726 0.2023 1.0079
vt 0.9920 0.2356 1.0236
vt 0.1101 0.1747 0.9898
vt 0.1569 0.2808 0.9450
vt 0.8431 0.4158 1.0079
vt 0.8468 0.3574 0.9550
vt 0.8201 0.3920 0.9898
vt 0.8226 0.2023 1.0079
vt 0.8704 0.2150 0.9685
vt 0.8601 0.1747 0.9898
vt 0.9069 0.2808 0.9450
vt -0.0685 0.3592 0.9663
vt -0.0931 0.2808 0.9450
vt 0.9315 0.3592 0.9663
vt 0.7942 0.4148 0.9958
vt 0.0442 0.4148 0.9958
vt 1.0000 0.3937 1.0045
vt 1.0442 0.4148 0.9958
vt -0.0000 0.3937 1.0045
vt 0.9558 0.4148 0.9958
vt -0.0442 0.4148 0.9958
vt 0.3750 0.1221 0.9958
vt 0.5000 0.1063 1.0045
vt 0.2500 0.1063 1.0045
vt 0.5000 0.0000 1.0000
vt 0.6250 0.1221 0.9958
vt 0.7500 0.1063 1.0045
vt 0.1250 0.1221 0.9958
vt 1.0000 0.1063 1.0045
vt 1.1250 0.1221 0.9958
vt 0.0000 0.1063 1.0045
vt 0.8750 0.1221 0.9958
# 175 texture coords

g BlobMesh005
s 1
f 1/1/1 2/2/2 3/3/3 4/4/4 
f 5/5/5 6/6/6 3/3/3 2/2/2 
f 7/7/7 4/4/4 3/3/3 6/6/6 
f 8/8/8 9/9/9 10/10/10 11/11/11 
f 5/5/5 2/2/2 10/10/10 9/9/9 
f 1/1/1 11/11/11 10/10/10 2/2/2 
f 7/7/7 6/6/6 12/12/12 13/13/13 
f 5/5/5 14/14/14 12/12/12 6/6/6 
f 15/15/15 13/16/13 12/17/12 14/18/14 
f 5/5/5 9/9/9 16/19/16 14/18/14 
f 8/8/8 17/20/17 16/19/16 9/9/9 
f 15/15/15 14/18/14 16/19/16 17/20/17 
f 18/21/18 19/22/19 20/23/20 21/24/21 
f 22/25/22 23/26/23 20/23/20 19/22/19 
f 24/27/24 21/24/21 20/23/20 23/26/23 
f 25/28/25 26/29/26 27/30/27 28/31/28 
f 22/25/22 19/22/19 27/30/27 26/29/26 
f 18/21/18 28/31/28 27/30/27 19/22/19 
f 29/32/29 30/33/30 31/34/31 32/35/32 
f 33/36/33 34/37/34 31/34/31 30/33/30 
f 35/38/35 32/35/32 31/34/31 34/37/34 
f 1/1/1 4/4/4 36/39/36 37/40/37 
f 7/7/7 38/41/38 36/39/36 4/4/4 
f 33/36/33 37/40/37 36/39/36 38/41/38 
f 33/36/33 30/33/30 39/42/39 40/43/40 
f 29/32/29 41/44/41 39/42/39 30/33/30 
f 24/27/24 40/43/40 39/42/39 41/44/41 
f 24/27/24 23/26/23 42/45/42 40/43/40 
f 22/25/22 43/46/43 42/45/42 23/26/23 
f 1/1/1 37/40/37 42/45/42 43/46/43 
f 33/36/33 40/43/40 42/45/42 37/40/37 
f 8/8/8 11/11/11 44/47/44 45/48/45 
f 1/1/1 43/46/43 44/47/44 11/11/11 
f 22/25/22 45/48/45 44/47/44 43/46/43 
f 22/25/22 26/29/26 46/49/46 47/50/47 
f 25/28/25 48/51/48 46/49/46 26/29/26 
f 49/52/49 47/50/47 46/49/46 48/51/48 
f 49/52/49 50/53/50 51/54/51 47/50/47 
f 52/55/52 53/56/53 51/54/51 50/53/50 
f 8/8/8 45/48/45 51/54/51 53/56/53 
f 22/25/22 47/50/47 51/54/51 45/48/45 
f 54/57/54 55/58/55 56/59/56 57/60/57 
f 52/55/52 50/53/50 56/59/56 55/58/55 
f 49/52/49 57/60/57 56/59/56 50/53/50 
f 35/38/35 34/37/34 58/61/58 59/62/59 
f 33/36/33 60/63/60 58/61/58 34/37/34 
f 61/64/61 59/62/59 58/61/58 60/63/60 
f 7/7/7 13/13/13 62/65/62 63/66/63 
f 15/15/15 64/67/64 62/68/62 13/16/13 
f 65/69/65 63/66/63 62/65/62 64/70/64 
f 65/69/65 66/71/66 67/72/67 68/73/68 
f 69/74/69 70/75/70 67/72/67 66/71/66 
f 61/64/61 68/73/68 67/72/67 70/75/70 
f 61/64/61 60/63/60 71/76/71 68/73/68 
f 33/36/33 38/41/38 71/76/71 60/63/60 
f 7/7/7 63/66/63 71/76/71 38/41/38 
f 65/69/65 68/73/68 71/76/71 63/66/63 
f 15/15/15 17/20/17 72/77/72 73/78/73 
f 8/8/8 53/56/53 72/77/72 17/20/17 
f 52/55/52 73/78/73 72/77/72 53/56/53 
f 52/55/52 74/79/74 75/80/75 76/81/76 
f 77/82/77 78/83/78 75/80/75 74/79/74 
f 79/84/79 76/81/76 75/80/75 78/83/78 
f 79/84/79 80/85/80 81/86/81 76/81/76 
f 65/69/65 64/70/64 81/87/81 80/88/80 
f 15/15/15 73/78/73 81/86/81 64/67/64 
f 52/55/52 76/81/76 81/86/81 73/78/73 
f 52/55/52 55/58/55 82/89/82 74/79/74 
f 54/57/54 83/90/83 82/89/82 55/58/55 
f 77/82/77 74/79/74 82/89/82 83/90/83 
f 69/74/69 66/71/66 84/91/84 85/92/85 
f 65/69/65 86/93/86 84/91/84 66/71/66 
f 87/94/87 85/95/85 84/96/84 86/97/86 
f 65/69/65 80/88/80 88/98/88 86/93/86 
f 79/84/79 89/99/89 88/100/88 80/85/80 
f 87/94/87 86/97/86 88/100/88 89/99/89 
f 18/21/18 21/24/21 90/101/90 91/102/91 
f 24/27/24 92/103/92 90/101/90 21/24/21 
f 93/104/93 91/102/91 90/101/90 92/103/92 
f 25/28/25 28/31/28 94/105/94 95/106/95 
f 18/21/18 91/102/91 94/105/94 28/31/28 
f 93/104/93 95/106/95 94/105/94 91/102/91 
f 29/32/29 32/35/32 96/107/96 97/108/97 
f 35/38/35 98/109/98 96/107/96 32/35/32 
f 99/110/99 97/108/97 96/107/96 98/109/98 
f 24/27/24 41/44/41 100/111/100 101/112/101 
f 29/32/29 97/108/97 100/111/100 41/44/41 
f 99/110/99 101/112/101 100/111/100 97/108/97 
f 99/110/99 102/113/102 103/114/103 104/115/104 
f 105/116/105 106/117/106 103/114/103 102/113/102 
f 107/118/107 104/115/104 103/114/103 106/117/106 
f 107/118/107 108/119/108 109/120/109 104/115/104 
f 93/104/93 92/103/92 109/120/109 108/119/108 
f 24/27/24 101/112/101 109/120/109 92/103/92 
f 99/110/99 104/115/104 109/120/109 101/112/101 
f 49/52/49 48/51/48 110/121/110 111/122/111 
f 25/28/25 95/106/95 110/121/110 48/51/48 
f 93/104/93 111/122/111 110/121/110 95/106/95 
f 93/104/93 108/119/108 112/123/112 113/124/113 
f 107/118/107 114/125/114 112/123/112 108/119/108 
f 115/126/115 113/124/113 112/123/112 114/125/114 
f 115/126/115 116/127/116 117/128/117 113/124/113 
f 118/129/118 119/130/119 117/128/117 116/127/116 
f 49/52/49 111/122/111 117/128/117 119/130/119 
f 93/104/93 113/124/113 117/128/117 111/122/111 
f 54/57/54 57/60/57 120/131/120 121/132/121 
f 49/52/49 119/130/119 120/131/120 57/60/57 
f 118/129/118 121/132/121 120/131/120 119/130/119 
f 35/38/35 59/62/59 122/133/122 98/109/98 
f 61/64/61 123/134/123 122/133/122 59/62/59 
f 99/110/99 98/109/98 122/133/122 123/134/123 
f 61/64/61 70/75/70 124/135/124 125/136/125 
f 69/74/69 126/137/126 124/135/124 70/75/70 
f 127/138/127 125/136/125 124/135/124 126/137/126 
f 127/138/127 128/139/128 129/140/129 130/141/130 
f 131/142/131 132/143/132 129/144/129 128/145/128 
f 105/116/105 130/141/130 129/140/129 132/146/132 
f 105/116/105 102/113/102 133/147/133 130/141/130 
f 99/110/99 123/134/123 133/147/133 102/113/102 
f 61/64/61 125/136/125 133/147/133 123/134/123 
f 127/138/127 130/141/130 133/147/133 125/136/125 
f 79/84/79 78/83/78 134/148/134 135/149/135 
f 77/82/77 136/150/136 134/148/134 78/83/78 
f 118/129/118 135/149/135 134/148/134 136/150/136 
f 118/129/118 116/127/116 137/151/137 138/152/138 
f 115/126/115 139/153/139 137/151/137 116/127/116 
f 131/142/131 138/152/138 137/151/137 139/153/139 
f 131/142/131 128/145/128 140/154/140 138/152/138 
f 127/138/127 141/155/141 140/156/140 128/139/128 
f 79/84/79 135/149/135 140/154/140 141/157/141 
f 118/129/118 138/152/138 140/154/140 135/149/135 
f 77/82/77 83/90/83 142/158/142 136/150/136 
f 54/57/54 121/132/121 142/158/142 83/90/83 
f 118/129/118 136/150/136 142/158/142 121/132/121 
f 69/74/69 85/92/85 143/159/143 126/137/126 
f 87/94/87 144/160/144 143/161/143 85/95/85 
f 127/138/127 126/137/126 143/159/143 144/162/144 
f 87/94/87 89/99/89 145/163/145 144/160/144 
f 79/84/79 141/157/141 145/163/145 89/99/89 
f 127/138/127 144/162/144 145/164/145 141/155/141 
f 107/118/107 106/117/106 146/165/146 147/166/147 
f 105/116/105 148/167/148 146/165/146 106/117/106 
f 149/168/149 147/166/147 146/165/146 148/167/148 
f 115/126/115 114/125/114 150/169/150 151/170/151 
f 107/118/107 147/166/147 150/169/150 114/125/114 
f 149/168/149 151/170/151 150/169/150 147/166/147 
f 105/116/105 132/146/132 152/171/152 148/167/148 
f 131/142/131 153/172/153 152/173/152 132/143/132 
f 149/168/149 148/167/148 152/171/152 153/174/153 
f 131/142/131 139/153/139 154/175/154 153/172/153 
f 115/126/115 151/170/151 154/175/154 139/153/139 
f 149/168/149 153/172/153 154/175/154 151/170/151 
# 152 polygons

